<svg xmlns="http://www.w3.org/2000/svg" width="1400" height="1080" viewBox="0 0 1400 1080">
<defs><pattern id="hatch" width="6" height="6" patternTransform="rotate(45)" patternUnits="userSpaceOnUse"><line x1="0" y1="0" x2="0" y2="6" stroke="#9aa0aa" stroke-width="1"/></pattern><pattern id="hatchBlue" width="7" height="7" patternTransform="rotate(45)" patternUnits="userSpaceOnUse"><line x1="0" y1="0" x2="0" y2="7" stroke="#0b3d91" stroke-width="1" opacity="0.30"/></pattern></defs>
<rect x="0" y="0" width="1400" height="1080" fill="#f6f4ec" stroke="none" stroke-width="1.6" rx="0" />
<line x1="16" y1="16" x2="16" y2="1064" stroke="#16181d" stroke-width="0.5" opacity="0.05" />
<line x1="40" y1="16" x2="40" y2="1064" stroke="#16181d" stroke-width="0.5" opacity="0.05" />
<line x1="64" y1="16" x2="64" y2="1064" stroke="#16181d" stroke-width="0.5" opacity="0.05" />
<line x1="88" y1="16" x2="88" y2="1064" stroke="#16181d" stroke-width="0.5" opacity="0.05" />
<line x1="112" y1="16" x2="112" y2="1064" stroke="#16181d" stroke-width="0.5" opacity="0.05" />
<line x1="136" y1="16" x2="136" y2="1064" stroke="#16181d" stroke-width="0.5" opacity="0.05" />
<line x1="160" y1="16" x2="160" y2="1064" stroke="#16181d" stroke-width="0.5" opacity="0.05" />
<line x1="184" y1="16" x2="184" y2="1064" stroke="#16181d" stroke-width="0.5" opacity="0.05" />
<line x1="208" y1="16" x2="208" y2="1064" stroke="#16181d" stroke-width="0.5" opacity="0.05" />
<line x1="232" y1="16" x2="232" y2="1064" stroke="#16181d" stroke-width="0.5" opacity="0.05" />
<line x1="256" y1="16" x2="256" y2="1064" stroke="#16181d" stroke-width="0.5" opacity="0.05" />
<line x1="280" y1="16" x2="280" y2="1064" stroke="#16181d" stroke-width="0.5" opacity="0.05" />
<line x1="304" y1="16" x2="304" y2="1064" stroke="#16181d" stroke-width="0.5" opacity="0.05" />
<line x1="328" y1="16" x2="328" y2="1064" stroke="#16181d" stroke-width="0.5" opacity="0.05" />
<line x1="352" y1="16" x2="352" y2="1064" stroke="#16181d" stroke-width="0.5" opacity="0.05" />
<line x1="376" y1="16" x2="376" y2="1064" stroke="#16181d" stroke-width="0.5" opacity="0.05" />
<line x1="400" y1="16" x2="400" y2="1064" stroke="#16181d" stroke-width="0.5" opacity="0.05" />
<line x1="424" y1="16" x2="424" y2="1064" stroke="#16181d" stroke-width="0.5" opacity="0.05" />
<line x1="448" y1="16" x2="448" y2="1064" stroke="#16181d" stroke-width="0.5" opacity="0.05" />
<line x1="472" y1="16" x2="472" y2="1064" stroke="#16181d" stroke-width="0.5" opacity="0.05" />
<line x1="496" y1="16" x2="496" y2="1064" stroke="#16181d" stroke-width="0.5" opacity="0.05" />
<line x1="520" y1="16" x2="520" y2="1064" stroke="#16181d" stroke-width="0.5" opacity="0.05" />
<line x1="544" y1="16" x2="544" y2="1064" stroke="#16181d" stroke-width="0.5" opacity="0.05" />
<line x1="568" y1="16" x2="568" y2="1064" stroke="#16181d" stroke-width="0.5" opacity="0.05" />
<line x1="592" y1="16" x2="592" y2="1064" stroke="#16181d" stroke-width="0.5" opacity="0.05" />
<line x1="616" y1="16" x2="616" y2="1064" stroke="#16181d" stroke-width="0.5" opacity="0.05" />
<line x1="640" y1="16" x2="640" y2="1064" stroke="#16181d" stroke-width="0.5" opacity="0.05" />
<line x1="664" y1="16" x2="664" y2="1064" stroke="#16181d" stroke-width="0.5" opacity="0.05" />
<line x1="688" y1="16" x2="688" y2="1064" stroke="#16181d" stroke-width="0.5" opacity="0.05" />
<line x1="712" y1="16" x2="712" y2="1064" stroke="#16181d" stroke-width="0.5" opacity="0.05" />
<line x1="736" y1="16" x2="736" y2="1064" stroke="#16181d" stroke-width="0.5" opacity="0.05" />
<line x1="760" y1="16" x2="760" y2="1064" stroke="#16181d" stroke-width="0.5" opacity="0.05" />
<line x1="784" y1="16" x2="784" y2="1064" stroke="#16181d" stroke-width="0.5" opacity="0.05" />
<line x1="808" y1="16" x2="808" y2="1064" stroke="#16181d" stroke-width="0.5" opacity="0.05" />
<line x1="832" y1="16" x2="832" y2="1064" stroke="#16181d" stroke-width="0.5" opacity="0.05" />
<line x1="856" y1="16" x2="856" y2="1064" stroke="#16181d" stroke-width="0.5" opacity="0.05" />
<line x1="880" y1="16" x2="880" y2="1064" stroke="#16181d" stroke-width="0.5" opacity="0.05" />
<line x1="904" y1="16" x2="904" y2="1064" stroke="#16181d" stroke-width="0.5" opacity="0.05" />
<line x1="928" y1="16" x2="928" y2="1064" stroke="#16181d" stroke-width="0.5" opacity="0.05" />
<line x1="952" y1="16" x2="952" y2="1064" stroke="#16181d" stroke-width="0.5" opacity="0.05" />
<line x1="976" y1="16" x2="976" y2="1064" stroke="#16181d" stroke-width="0.5" opacity="0.05" />
<line x1="1000" y1="16" x2="1000" y2="1064" stroke="#16181d" stroke-width="0.5" opacity="0.05" />
<line x1="1024" y1="16" x2="1024" y2="1064" stroke="#16181d" stroke-width="0.5" opacity="0.05" />
<line x1="1048" y1="16" x2="1048" y2="1064" stroke="#16181d" stroke-width="0.5" opacity="0.05" />
<line x1="1072" y1="16" x2="1072" y2="1064" stroke="#16181d" stroke-width="0.5" opacity="0.05" />
<line x1="1096" y1="16" x2="1096" y2="1064" stroke="#16181d" stroke-width="0.5" opacity="0.05" />
<line x1="1120" y1="16" x2="1120" y2="1064" stroke="#16181d" stroke-width="0.5" opacity="0.05" />
<line x1="1144" y1="16" x2="1144" y2="1064" stroke="#16181d" stroke-width="0.5" opacity="0.05" />
<line x1="1168" y1="16" x2="1168" y2="1064" stroke="#16181d" stroke-width="0.5" opacity="0.05" />
<line x1="1192" y1="16" x2="1192" y2="1064" stroke="#16181d" stroke-width="0.5" opacity="0.05" />
<line x1="1216" y1="16" x2="1216" y2="1064" stroke="#16181d" stroke-width="0.5" opacity="0.05" />
<line x1="1240" y1="16" x2="1240" y2="1064" stroke="#16181d" stroke-width="0.5" opacity="0.05" />
<line x1="1264" y1="16" x2="1264" y2="1064" stroke="#16181d" stroke-width="0.5" opacity="0.05" />
<line x1="1288" y1="16" x2="1288" y2="1064" stroke="#16181d" stroke-width="0.5" opacity="0.05" />
<line x1="1312" y1="16" x2="1312" y2="1064" stroke="#16181d" stroke-width="0.5" opacity="0.05" />
<line x1="1336" y1="16" x2="1336" y2="1064" stroke="#16181d" stroke-width="0.5" opacity="0.05" />
<line x1="1360" y1="16" x2="1360" y2="1064" stroke="#16181d" stroke-width="0.5" opacity="0.05" />
<line x1="1384" y1="16" x2="1384" y2="1064" stroke="#16181d" stroke-width="0.5" opacity="0.05" />
<line x1="16" y1="16" x2="1384" y2="16" stroke="#16181d" stroke-width="0.5" opacity="0.05" />
<line x1="16" y1="40" x2="1384" y2="40" stroke="#16181d" stroke-width="0.5" opacity="0.05" />
<line x1="16" y1="64" x2="1384" y2="64" stroke="#16181d" stroke-width="0.5" opacity="0.05" />
<line x1="16" y1="88" x2="1384" y2="88" stroke="#16181d" stroke-width="0.5" opacity="0.05" />
<line x1="16" y1="112" x2="1384" y2="112" stroke="#16181d" stroke-width="0.5" opacity="0.05" />
<line x1="16" y1="136" x2="1384" y2="136" stroke="#16181d" stroke-width="0.5" opacity="0.05" />
<line x1="16" y1="160" x2="1384" y2="160" stroke="#16181d" stroke-width="0.5" opacity="0.05" />
<line x1="16" y1="184" x2="1384" y2="184" stroke="#16181d" stroke-width="0.5" opacity="0.05" />
<line x1="16" y1="208" x2="1384" y2="208" stroke="#16181d" stroke-width="0.5" opacity="0.05" />
<line x1="16" y1="232" x2="1384" y2="232" stroke="#16181d" stroke-width="0.5" opacity="0.05" />
<line x1="16" y1="256" x2="1384" y2="256" stroke="#16181d" stroke-width="0.5" opacity="0.05" />
<line x1="16" y1="280" x2="1384" y2="280" stroke="#16181d" stroke-width="0.5" opacity="0.05" />
<line x1="16" y1="304" x2="1384" y2="304" stroke="#16181d" stroke-width="0.5" opacity="0.05" />
<line x1="16" y1="328" x2="1384" y2="328" stroke="#16181d" stroke-width="0.5" opacity="0.05" />
<line x1="16" y1="352" x2="1384" y2="352" stroke="#16181d" stroke-width="0.5" opacity="0.05" />
<line x1="16" y1="376" x2="1384" y2="376" stroke="#16181d" stroke-width="0.5" opacity="0.05" />
<line x1="16" y1="400" x2="1384" y2="400" stroke="#16181d" stroke-width="0.5" opacity="0.05" />
<line x1="16" y1="424" x2="1384" y2="424" stroke="#16181d" stroke-width="0.5" opacity="0.05" />
<line x1="16" y1="448" x2="1384" y2="448" stroke="#16181d" stroke-width="0.5" opacity="0.05" />
<line x1="16" y1="472" x2="1384" y2="472" stroke="#16181d" stroke-width="0.5" opacity="0.05" />
<line x1="16" y1="496" x2="1384" y2="496" stroke="#16181d" stroke-width="0.5" opacity="0.05" />
<line x1="16" y1="520" x2="1384" y2="520" stroke="#16181d" stroke-width="0.5" opacity="0.05" />
<line x1="16" y1="544" x2="1384" y2="544" stroke="#16181d" stroke-width="0.5" opacity="0.05" />
<line x1="16" y1="568" x2="1384" y2="568" stroke="#16181d" stroke-width="0.5" opacity="0.05" />
<line x1="16" y1="592" x2="1384" y2="592" stroke="#16181d" stroke-width="0.5" opacity="0.05" />
<line x1="16" y1="616" x2="1384" y2="616" stroke="#16181d" stroke-width="0.5" opacity="0.05" />
<line x1="16" y1="640" x2="1384" y2="640" stroke="#16181d" stroke-width="0.5" opacity="0.05" />
<line x1="16" y1="664" x2="1384" y2="664" stroke="#16181d" stroke-width="0.5" opacity="0.05" />
<line x1="16" y1="688" x2="1384" y2="688" stroke="#16181d" stroke-width="0.5" opacity="0.05" />
<line x1="16" y1="712" x2="1384" y2="712" stroke="#16181d" stroke-width="0.5" opacity="0.05" />
<line x1="16" y1="736" x2="1384" y2="736" stroke="#16181d" stroke-width="0.5" opacity="0.05" />
<line x1="16" y1="760" x2="1384" y2="760" stroke="#16181d" stroke-width="0.5" opacity="0.05" />
<line x1="16" y1="784" x2="1384" y2="784" stroke="#16181d" stroke-width="0.5" opacity="0.05" />
<line x1="16" y1="808" x2="1384" y2="808" stroke="#16181d" stroke-width="0.5" opacity="0.05" />
<line x1="16" y1="832" x2="1384" y2="832" stroke="#16181d" stroke-width="0.5" opacity="0.05" />
<line x1="16" y1="856" x2="1384" y2="856" stroke="#16181d" stroke-width="0.5" opacity="0.05" />
<line x1="16" y1="880" x2="1384" y2="880" stroke="#16181d" stroke-width="0.5" opacity="0.05" />
<line x1="16" y1="904" x2="1384" y2="904" stroke="#16181d" stroke-width="0.5" opacity="0.05" />
<line x1="16" y1="928" x2="1384" y2="928" stroke="#16181d" stroke-width="0.5" opacity="0.05" />
<line x1="16" y1="952" x2="1384" y2="952" stroke="#16181d" stroke-width="0.5" opacity="0.05" />
<line x1="16" y1="976" x2="1384" y2="976" stroke="#16181d" stroke-width="0.5" opacity="0.05" />
<line x1="16" y1="1000" x2="1384" y2="1000" stroke="#16181d" stroke-width="0.5" opacity="0.05" />
<line x1="16" y1="1024" x2="1384" y2="1024" stroke="#16181d" stroke-width="0.5" opacity="0.05" />
<line x1="16" y1="1048" x2="1384" y2="1048" stroke="#16181d" stroke-width="0.5" opacity="0.05" />
<rect x="16" y="16" width="1368" height="1048" fill="none" stroke="#16181d" stroke-width="2.4" rx="0" />
<rect x="23" y="23" width="1354" height="1034" fill="none" stroke="#16181d" stroke-width="0.8" rx="0" />
<line x1="10" y1="16" x2="34" y2="16" stroke="#16181d" stroke-width="1.6" />
<line x1="16" y1="10" x2="16" y2="34" stroke="#16181d" stroke-width="1.6" />
<line x1="1390" y1="16" x2="1366" y2="16" stroke="#16181d" stroke-width="1.6" />
<line x1="1384" y1="10" x2="1384" y2="34" stroke="#16181d" stroke-width="1.6" />
<line x1="10" y1="1064" x2="34" y2="1064" stroke="#16181d" stroke-width="1.6" />
<line x1="16" y1="1070" x2="16" y2="1046" stroke="#16181d" stroke-width="1.6" />
<line x1="1390" y1="1064" x2="1366" y2="1064" stroke="#16181d" stroke-width="1.6" />
<line x1="1384" y1="1070" x2="1384" y2="1046" stroke="#16181d" stroke-width="1.6" />
<circle cx="66" cy="76" r="29" fill="#fcfbf6" stroke="#16181d" stroke-width="1.8" />
<circle cx="66" cy="76" r="23" fill="none" stroke="#0b3d91" stroke-width="1.1" />
<polygon points="64.5,60 67.5,60 71,84 61,84" fill="#16181d" stroke="#16181d" stroke-width="1.6" />
<polygon points="61,84 57,91 62,87" fill="#c81d25" stroke="#16181d" stroke-width="1.6" />
<polygon points="71,84 75,91 70,87" fill="#c81d25" stroke="#16181d" stroke-width="1.6" />
<ellipse cx="66" cy="77" rx="18" ry="6.5" fill="none" stroke="#16181d" stroke-width="1" transform="rotate(-20 66 77)"/>
<text x="66" y="117" font-size="8.5" fill="#16181d" text-anchor="middle" font-weight="800" font-family="'Arial Narrow', Arial, 'Helvetica Neue', sans-serif" letter-spacing="1.5" >PERSEUS · I</text>
<text x="150" y="56" font-size="10.5" fill="#0b3d91" text-anchor="start" font-weight="800" font-family="'Arial Narrow', Arial, 'Helvetica Neue', sans-serif" letter-spacing="1.2" >PERSEUS 1 · MISSION PACK · APPENDIX A</text>
<text x="150" y="96" font-size="30" fill="#16181d" text-anchor="start" font-weight="800" font-family="'Arial Narrow', Arial, 'Helvetica Neue', sans-serif" >STAGE SEPARATION SEQUENCE</text>
<text x="150" y="122" font-size="12.5" fill="#52565f" text-anchor="start" font-weight="500" font-family="Arial, 'Helvetica Neue', sans-serif" >Exploded configuration states, flight order · companion to Sheet 1 general arrangement</text>
<line x1="40" y1="140" x2="1360" y2="140" stroke="#16181d" stroke-width="1.3" />
<rect x="32" y="168" width="248" height="188" fill="#fcfbf6" stroke="#0b3d91" stroke-width="1.8" rx="10" />
<circle cx="56" cy="193" r="15" fill="#0b3d91" stroke="#f6f4ec" stroke-width="2" />
<text x="56" y="198" font-size="14" fill="#fcfbf6" text-anchor="middle" font-weight="800" font-family="'Courier New', 'DejaVu Sans Mono', monospace" >5</text>
<text x="80" y="198" font-size="13.5" fill="#16181d" text-anchor="start" font-weight="800" font-family="'Arial Narrow', Arial, 'Helvetica Neue', sans-serif" >LIFTOFF STACK</text>
<line x1="48" y1="212" x2="264" y2="212" stroke="#0b3d91" stroke-width="1" opacity="0.5" />
<text x="50" y="234" font-size="9.5" fill="#52565f" text-anchor="start" font-weight="600" font-family="'Courier New', 'DejaVu Sans Mono', monospace" >• MK16 PARACHUTE</text>
<text x="50" y="253" font-size="9.5" fill="#52565f" text-anchor="start" font-weight="600" font-family="'Courier New', 'DejaVu Sans Mono', monospace" >• MK1 COMMAND POD</text>
<text x="50" y="272" font-size="9.5" fill="#52565f" text-anchor="start" font-weight="600" font-family="'Courier New', 'DejaVu Sans Mono', monospace" >• 1.25M HEAT SHIELD</text>
<text x="50" y="291" font-size="9.5" fill="#52565f" text-anchor="start" font-weight="600" font-family="'Courier New', 'DejaVu Sans Mono', monospace" >• 2X FL-T800 + TERRIER/SWIVEL</text>
<text x="50" y="310" font-size="9.5" fill="#52565f" text-anchor="start" font-weight="600" font-family="'Courier New', 'DejaVu Sans Mono', monospace" >• 2X HAMMER (NOSE CONE) + FINS</text>
<rect x="294" y="168" width="248" height="188" fill="#fcfbf6" stroke="#5c3d8c" stroke-width="1.8" rx="10" />
<circle cx="318" cy="193" r="15" fill="#5c3d8c" stroke="#f6f4ec" stroke-width="2" />
<text x="318" y="198" font-size="14" fill="#fcfbf6" text-anchor="middle" font-weight="800" font-family="'Courier New', 'DejaVu Sans Mono', monospace" >4</text>
<text x="342" y="198" font-size="13.5" fill="#16181d" text-anchor="start" font-weight="800" font-family="'Arial Narrow', Arial, 'Helvetica Neue', sans-serif" >BOOSTER JETTISON</text>
<line x1="310" y1="212" x2="526" y2="212" stroke="#5c3d8c" stroke-width="1" opacity="0.5" />
<text x="312" y="234" font-size="9.5" fill="#52565f" text-anchor="start" font-weight="600" font-family="'Courier New', 'DejaVu Sans Mono', monospace" >• RADIAL HAMMERS RELEASED</text>
<text x="312" y="253" font-size="9.5" fill="#52565f" text-anchor="start" font-weight="600" font-family="'Courier New', 'DejaVu Sans Mono', monospace" >• CORE STACK REMAINS INTACT</text>
<text x="312" y="272" font-size="9.5" fill="#52565f" text-anchor="start" font-weight="600" font-family="'Courier New', 'DejaVu Sans Mono', monospace" >• SWIVEL CONTINUES ASCENT</text>
<rect x="556" y="168" width="248" height="188" fill="#fcfbf6" stroke="#c81d25" stroke-width="1.8" rx="10" />
<circle cx="580" cy="193" r="15" fill="#c81d25" stroke="#f6f4ec" stroke-width="2" />
<text x="580" y="198" font-size="14" fill="#fcfbf6" text-anchor="middle" font-weight="800" font-family="'Courier New', 'DejaVu Sans Mono', monospace" >3</text>
<text x="604" y="198" font-size="13.5" fill="#16181d" text-anchor="start" font-weight="800" font-family="'Arial Narrow', Arial, 'Helvetica Neue', sans-serif" >CORE SEPARATION</text>
<line x1="572" y1="212" x2="788" y2="212" stroke="#c81d25" stroke-width="1" opacity="0.5" />
<text x="574" y="234" font-size="9.5" fill="#52565f" text-anchor="start" font-weight="600" font-family="'Courier New', 'DejaVu Sans Mono', monospace" >• SPENT LOWER FL-T800 DROPPED</text>
<text x="574" y="253" font-size="9.5" fill="#52565f" text-anchor="start" font-weight="600" font-family="'Courier New', 'DejaVu Sans Mono', monospace" >• SWIVEL DISCARDED</text>
<text x="574" y="272" font-size="9.5" fill="#52565f" text-anchor="start" font-weight="600" font-family="'Courier New', 'DejaVu Sans Mono', monospace" >• TERRIER ASSUMES PROPULSION</text>
<rect x="818" y="168" width="248" height="188" fill="#fcfbf6" stroke="#0e6e5c" stroke-width="1.8" rx="10" />
<circle cx="842" cy="193" r="15" fill="#0e6e5c" stroke="#f6f4ec" stroke-width="2" />
<text x="842" y="198" font-size="14" fill="#fcfbf6" text-anchor="middle" font-weight="800" font-family="'Courier New', 'DejaVu Sans Mono', monospace" >2</text>
<text x="866" y="198" font-size="13.5" fill="#16181d" text-anchor="start" font-weight="800" font-family="'Arial Narrow', Arial, 'Helvetica Neue', sans-serif" >MISSION STAGE</text>
<line x1="834" y1="212" x2="1050" y2="212" stroke="#0e6e5c" stroke-width="1" opacity="0.5" />
<text x="836" y="234" font-size="9.5" fill="#52565f" text-anchor="start" font-weight="600" font-family="'Courier New', 'DejaVu Sans Mono', monospace" >• FL-T800 + TERRIER ACTIVE</text>
<text x="836" y="253" font-size="9.5" fill="#52565f" text-anchor="start" font-weight="600" font-family="'Courier New', 'DejaVu Sans Mono', monospace" >• CAPSULE STACK REMAINS MATED</text>
<text x="836" y="272" font-size="9.5" fill="#52565f" text-anchor="start" font-weight="600" font-family="'Courier New', 'DejaVu Sans Mono', monospace" >• USED FOR ORBIT, TMI, TRIM</text>
<rect x="1080" y="168" width="248" height="188" fill="#fcfbf6" stroke="#c81d25" stroke-width="1.8" rx="10" />
<circle cx="1104" cy="193" r="15" fill="#c81d25" stroke="#f6f4ec" stroke-width="2" />
<text x="1104" y="198" font-size="14" fill="#fcfbf6" text-anchor="middle" font-weight="800" font-family="'Courier New', 'DejaVu Sans Mono', monospace" >1</text>
<text x="1128" y="198" font-size="13.5" fill="#16181d" text-anchor="start" font-weight="800" font-family="'Arial Narrow', Arial, 'Helvetica Neue', sans-serif" >ENTRY CONFIG</text>
<line x1="1096" y1="212" x2="1312" y2="212" stroke="#c81d25" stroke-width="1" opacity="0.5" />
<text x="1098" y="234" font-size="9.5" fill="#52565f" text-anchor="start" font-weight="600" font-family="'Courier New', 'DejaVu Sans Mono', monospace" >• MISSION STAGE JETTISONED</text>
<text x="1098" y="253" font-size="9.5" fill="#52565f" text-anchor="start" font-weight="600" font-family="'Courier New', 'DejaVu Sans Mono', monospace" >• CAPSULE + HEAT SHIELD KEPT</text>
<text x="1098" y="272" font-size="9.5" fill="#52565f" text-anchor="start" font-weight="600" font-family="'Courier New', 'DejaVu Sans Mono', monospace" >• PARACHUTE ARMED FOR RECOVERY</text>
<line x1="280" y1="382" x2="294" y2="382" stroke="#0b3d91" stroke-width="2.6" />
<polygon points="294,382 282,375 282,389" fill="#0b3d91" stroke="#16181d" stroke-width="1.6" />
<rect x="229.0" y="357" width="116" height="20" fill="#fcfbf6" stroke="#0b3d91" stroke-width="1.4" rx="10" />
<text x="287.0" y="371" font-size="9.5" fill="#0b3d91" text-anchor="middle" font-weight="800" font-family="'Courier New', 'DejaVu Sans Mono', monospace" >BOOSTER SEP</text>
<line x1="542" y1="382" x2="556" y2="382" stroke="#5c3d8c" stroke-width="2.6" />
<polygon points="556,382 544,375 544,389" fill="#5c3d8c" stroke="#16181d" stroke-width="1.6" />
<rect x="491.0" y="357" width="116" height="20" fill="#fcfbf6" stroke="#5c3d8c" stroke-width="1.4" rx="10" />
<text x="549.0" y="371" font-size="9.5" fill="#5c3d8c" text-anchor="middle" font-weight="800" font-family="'Courier New', 'DejaVu Sans Mono', monospace" >CORE SEP</text>
<line x1="804" y1="382" x2="818" y2="382" stroke="#c81d25" stroke-width="2.6" />
<polygon points="818,382 806,375 806,389" fill="#c81d25" stroke="#16181d" stroke-width="1.6" />
<rect x="753.0" y="357" width="116" height="20" fill="#fcfbf6" stroke="#c81d25" stroke-width="1.4" rx="10" />
<text x="811.0" y="371" font-size="9.5" fill="#c81d25" text-anchor="middle" font-weight="800" font-family="'Courier New', 'DejaVu Sans Mono', monospace" >MISSION HANDOFF</text>
<line x1="1066" y1="382" x2="1080" y2="382" stroke="#0e6e5c" stroke-width="2.6" />
<polygon points="1080,382 1068,375 1068,389" fill="#0e6e5c" stroke="#16181d" stroke-width="1.6" />
<rect x="1015.0" y="357" width="116" height="20" fill="#fcfbf6" stroke="#0e6e5c" stroke-width="1.4" rx="10" />
<text x="1073.0" y="371" font-size="9.5" fill="#0e6e5c" text-anchor="middle" font-weight="800" font-family="'Courier New', 'DejaVu Sans Mono', monospace" >ENTRY SEP</text>
<rect x="32" y="412" width="350" height="540" fill="#fcfbf6" stroke="#16181d" stroke-width="1.6" rx="8" />
<text x="48" y="438" font-size="13" fill="#16181d" text-anchor="start" font-weight="800" font-family="'Arial Narrow', Arial, 'Helvetica Neue', sans-serif" >CUT-LINE REFERENCE</text>
<text x="48" y="456" font-size="10" fill="#52565f" text-anchor="start" font-weight="500" font-family="Arial, 'Helvetica Neue', sans-serif" >split points · retained elements</text>
<polygon points="255,510 270,490 300,482 330,490 345,510 340,524 260,524" fill="#eae7dd" stroke="#16181d" stroke-width="1.7" />
<polygon points="255,510 270,490 300,482 330,490 345,510 340,524 260,524" fill="url(#hatch)" stroke="none" stroke-width="1.6" />
<line x1="276" y1="524" x2="300" y2="548" stroke="#52565f" stroke-width="1.0" />
<line x1="292" y1="524" x2="300" y2="548" stroke="#52565f" stroke-width="1.0" />
<line x1="308" y1="524" x2="300" y2="548" stroke="#52565f" stroke-width="1.0" />
<line x1="324" y1="524" x2="300" y2="548" stroke="#52565f" stroke-width="1.0" />
<text x="300" y="566" font-size="11" fill="#16181d" text-anchor="middle" font-weight="800" font-family="'Courier New', 'DejaVu Sans Mono', monospace" >MK16</text>
<polygon points="256,664 272,612 300,578 328,612 344,664" fill="#eae7dd" stroke="#16181d" stroke-width="1.8" />
<rect x="274" y="610" width="52" height="40" fill="#fcfbf6" stroke="#16181d" stroke-width="1.3" rx="6" />
<path d="M 282 620 Q 300 602 318 620" fill="none" stroke="#0b3d91" stroke-width="2.2" />
<text x="300" y="636" font-size="11.5" fill="#16181d" text-anchor="middle" font-weight="800" font-family="'Courier New', 'DejaVu Sans Mono', monospace" >MK1</text>
<polygon points="246,696 354,696 342,728 258,728" fill="#eae7dd" stroke="#16181d" stroke-width="1.7" />
<polygon points="246,696 354,696 342,728 258,728" fill="url(#hatch)" stroke="none" stroke-width="1.6" />
<text x="300" y="716" font-size="9" fill="#16181d" text-anchor="middle" font-weight="800" font-family="'Courier New', 'DejaVu Sans Mono', monospace" >1.25M HEAT SHIELD</text>
<rect x="246.0" y="742" width="108" height="18" fill="#fcfbf6" stroke="#16181d" stroke-width="1.6" rx="3" />
<text x="300" y="754.5" font-size="9.5" fill="#16181d" text-anchor="middle" font-weight="800" font-family="'Courier New', 'DejaVu Sans Mono', monospace" >TR-18A</text>
<rect x="244.0" y="770" width="112" height="42" fill="#dde3ee" stroke="#16181d" stroke-width="1.7" rx="12" />
<line x1="256.0" y1="785" x2="344.0" y2="785" stroke="#16181d" stroke-width="1" stroke-dasharray="9 6" opacity="0.45" />
<line x1="256.0" y1="797" x2="344.0" y2="797" stroke="#16181d" stroke-width="1" stroke-dasharray="9 6" opacity="0.45" />
<text x="300" y="789.0" font-size="13.5" fill="#16181d" text-anchor="middle" font-weight="800" font-family="'Courier New', 'DejaVu Sans Mono', monospace" >FL-T800</text>
<text x="300" y="807.0" font-size="9.5" fill="#52565f" text-anchor="middle" font-weight="600" font-family="'Courier New', 'DejaVu Sans Mono', monospace" >mission</text>
<rect x="246.0" y="820" width="108" height="18" fill="#fcfbf6" stroke="#16181d" stroke-width="1.6" rx="3" />
<text x="300" y="832.5" font-size="9.5" fill="#16181d" text-anchor="middle" font-weight="800" font-family="'Courier New', 'DejaVu Sans Mono', monospace" >TR-18A</text>
<rect x="244.0" y="848" width="112" height="42" fill="#c4cee2" stroke="#16181d" stroke-width="1.7" rx="12" />
<line x1="256.0" y1="863" x2="344.0" y2="863" stroke="#16181d" stroke-width="1" stroke-dasharray="9 6" opacity="0.45" />
<line x1="256.0" y1="875" x2="344.0" y2="875" stroke="#16181d" stroke-width="1" stroke-dasharray="9 6" opacity="0.45" />
<text x="300" y="867.0" font-size="13.5" fill="#16181d" text-anchor="middle" font-weight="800" font-family="'Courier New', 'DejaVu Sans Mono', monospace" >FL-T800</text>
<text x="300" y="885.0" font-size="9.5" fill="#52565f" text-anchor="middle" font-weight="600" font-family="'Courier New', 'DejaVu Sans Mono', monospace" >core</text>
<line x1="58" y1="482" x2="58" y2="890" stroke="#8a8d93" stroke-width="1" stroke-dasharray="3 5" />
<circle cx="58" cy="752" r="11" fill="#c81d25" stroke="#f6f4ec" stroke-width="2" />
<text x="58" y="757" font-size="14" fill="#fcfbf6" text-anchor="middle" font-weight="800" font-family="'Courier New', 'DejaVu Sans Mono', monospace" >1</text>
<text x="78" y="756" font-size="10.5" fill="#c81d25" text-anchor="start" font-weight="800" font-family="'Courier New', 'DejaVu Sans Mono', monospace" >ENTRY SEP</text>
<circle cx="58" cy="832" r="11" fill="#c81d25" stroke="#f6f4ec" stroke-width="2" />
<text x="58" y="837" font-size="14" fill="#fcfbf6" text-anchor="middle" font-weight="800" font-family="'Courier New', 'DejaVu Sans Mono', monospace" >3</text>
<text x="78" y="836" font-size="10.5" fill="#c81d25" text-anchor="start" font-weight="800" font-family="'Courier New', 'DejaVu Sans Mono', monospace" >CORE SEP</text>
<circle cx="58" cy="886" r="11" fill="#5c3d8c" stroke="#f6f4ec" stroke-width="2" />
<text x="58" y="891" font-size="14" fill="#fcfbf6" text-anchor="middle" font-weight="800" font-family="'Courier New', 'DejaVu Sans Mono', monospace" >4</text>
<text x="78" y="890" font-size="10.5" fill="#5c3d8c" text-anchor="start" font-weight="800" font-family="'Courier New', 'DejaVu Sans Mono', monospace" >BOOSTER SEP</text>
<rect x="410" y="412" width="380" height="540" fill="#fcfbf6" stroke="#16181d" stroke-width="1.6" rx="8" />
<text x="426" y="438" font-size="13" fill="#16181d" text-anchor="start" font-weight="800" font-family="'Arial Narrow', Arial, 'Helvetica Neue', sans-serif" >STAGE SEQUENCE SUMMARY</text>
<text x="426" y="456" font-size="10" fill="#52565f" text-anchor="start" font-weight="500" font-family="Arial, 'Helvetica Neue', sans-serif" >configuration after each separation event</text>
<rect x="428" y="476" width="344" height="64" fill="#fcfbf6" stroke="#0b3d91" stroke-width="1.6" rx="8" />
<text x="440" y="500" font-size="12" fill="#16181d" text-anchor="start" font-weight="800" font-family="'Courier New', 'DejaVu Sans Mono', monospace" >5 // LIFTOFF ASSEMBLY</text>
<text x="440" y="520" font-size="9.5" fill="#52565f" text-anchor="start" font-weight="500" font-family="'Courier New', 'DejaVu Sans Mono', monospace" >pod + mission stage + launch core + boosters</text>
<rect x="428" y="566" width="344" height="64" fill="#fcfbf6" stroke="#5c3d8c" stroke-width="1.6" rx="8" />
<text x="440" y="590" font-size="12" fill="#16181d" text-anchor="start" font-weight="800" font-family="'Courier New', 'DejaVu Sans Mono', monospace" >4 // BOOSTER SEP</text>
<text x="440" y="610" font-size="9.5" fill="#52565f" text-anchor="start" font-weight="500" font-family="'Courier New', 'DejaVu Sans Mono', monospace" >core + mission stage continue under Swivel only</text>
<rect x="428" y="656" width="344" height="64" fill="#fcfbf6" stroke="#c81d25" stroke-width="1.6" rx="8" />
<text x="440" y="680" font-size="12" fill="#16181d" text-anchor="start" font-weight="800" font-family="'Courier New', 'DejaVu Sans Mono', monospace" >3 // CORE SEP</text>
<text x="440" y="700" font-size="9.5" fill="#52565f" text-anchor="start" font-weight="500" font-family="'Courier New', 'DejaVu Sans Mono', monospace" >mission stage isolated with Terrier propulsion</text>
<rect x="428" y="746" width="344" height="64" fill="#fcfbf6" stroke="#0e6e5c" stroke-width="1.6" rx="8" />
<text x="440" y="770" font-size="12" fill="#16181d" text-anchor="start" font-weight="800" font-family="'Courier New', 'DejaVu Sans Mono', monospace" >2 // MISSION STAGE</text>
<text x="440" y="790" font-size="9.5" fill="#52565f" text-anchor="start" font-weight="500" font-family="'Courier New', 'DejaVu Sans Mono', monospace" >orbit, TMI, flyby, trim before final separation</text>
<rect x="428" y="836" width="344" height="64" fill="#fcfbf6" stroke="#c81d25" stroke-width="1.6" rx="8" />
<text x="440" y="860" font-size="12" fill="#16181d" text-anchor="start" font-weight="800" font-family="'Courier New', 'DejaVu Sans Mono', monospace" >1 // RECOVERY STACK</text>
<text x="440" y="880" font-size="9.5" fill="#52565f" text-anchor="start" font-weight="500" font-family="'Courier New', 'DejaVu Sans Mono', monospace" >capsule + heat shield + chute — final config</text>
<rect x="818" y="412" width="542" height="540" fill="#fcfbf6" stroke="#16181d" stroke-width="1.6" rx="8" />
<text x="834" y="438" font-size="13" fill="#16181d" text-anchor="start" font-weight="800" font-family="'Arial Narrow', Arial, 'Helvetica Neue', sans-serif" >POST-STAGE-1 RECOVERY VEHICLE</text>
<text x="834" y="456" font-size="10" fill="#52565f" text-anchor="start" font-weight="500" font-family="Arial, 'Helvetica Neue', sans-serif" >retained configuration, Kerbin atmospheric entry</text>
<polygon points="873,514 888,494 918,486 948,494 963,514 958,528 878,528" fill="#eae7dd" stroke="#16181d" stroke-width="1.7" />
<polygon points="873,514 888,494 918,486 948,494 963,514 958,528 878,528" fill="url(#hatch)" stroke="none" stroke-width="1.6" />
<line x1="894" y1="528" x2="918" y2="552" stroke="#52565f" stroke-width="1.0" />
<line x1="910" y1="528" x2="918" y2="552" stroke="#52565f" stroke-width="1.0" />
<line x1="926" y1="528" x2="918" y2="552" stroke="#52565f" stroke-width="1.0" />
<line x1="942" y1="528" x2="918" y2="552" stroke="#52565f" stroke-width="1.0" />
<text x="918" y="570" font-size="11" fill="#16181d" text-anchor="middle" font-weight="800" font-family="'Courier New', 'DejaVu Sans Mono', monospace" >MK16</text>
<polygon points="874,704 890,652 918,618 946,652 962,704" fill="#eae7dd" stroke="#16181d" stroke-width="1.8" />
<rect x="892" y="650" width="52" height="40" fill="#fcfbf6" stroke="#16181d" stroke-width="1.3" rx="6" />
<path d="M 900 660 Q 918 642 936 660" fill="none" stroke="#0b3d91" stroke-width="2.2" />
<text x="918" y="676" font-size="11.5" fill="#16181d" text-anchor="middle" font-weight="800" font-family="'Courier New', 'DejaVu Sans Mono', monospace" >MK1</text>
<polygon points="864,768 972,768 960,800 876,800" fill="#eae7dd" stroke="#16181d" stroke-width="1.7" />
<polygon points="864,768 972,768 960,800 876,800" fill="url(#hatch)" stroke="none" stroke-width="1.6" />
<text x="918" y="788" font-size="9" fill="#16181d" text-anchor="middle" font-weight="800" font-family="'Courier New', 'DejaVu Sans Mono', monospace" >1.25M HEAT SHIELD</text>
<text x="1038" y="522" font-size="10.5" fill="#52565f" text-anchor="start" font-weight="600" font-family="'Courier New', 'DejaVu Sans Mono', monospace" >MK16 CHUTE</text>
<text x="1188" y="522" font-size="10.5" fill="#16181d" text-anchor="end" font-weight="700" font-family="'Courier New', 'DejaVu Sans Mono', monospace" >0.10 T</text>
<text x="1038" y="544" font-size="10.5" fill="#52565f" text-anchor="start" font-weight="600" font-family="'Courier New', 'DejaVu Sans Mono', monospace" >MK1 POD</text>
<text x="1188" y="544" font-size="10.5" fill="#16181d" text-anchor="end" font-weight="700" font-family="'Courier New', 'DejaVu Sans Mono', monospace" >0.84 T</text>
<text x="1038" y="566" font-size="10.5" fill="#52565f" text-anchor="start" font-weight="600" font-family="'Courier New', 'DejaVu Sans Mono', monospace" >HEAT SHIELD</text>
<text x="1188" y="566" font-size="10.5" fill="#16181d" text-anchor="end" font-weight="700" font-family="'Courier New', 'DejaVu Sans Mono', monospace" >0.10 T</text>
<text x="1038" y="588" font-size="10.5" fill="#52565f" text-anchor="start" font-weight="600" font-family="'Courier New', 'DejaVu Sans Mono', monospace" >TOTAL MASS</text>
<text x="1188" y="588" font-size="10.5" fill="#16181d" text-anchor="end" font-weight="700" font-family="'Courier New', 'DejaVu Sans Mono', monospace" >1.04 T</text>
<line x1="1038" y1="642" x2="1188" y2="642" stroke="#16181d" stroke-width="0.8" opacity="0.4" />
<text x="1038" y="672" font-size="10" fill="#52565f" text-anchor="start" font-weight="500" font-family="Arial, 'Helvetica Neue', sans-serif" >Mission stage jettisoned before entry.</text>
<text x="1038" y="692" font-size="10" fill="#52565f" text-anchor="start" font-weight="500" font-family="Arial, 'Helvetica Neue', sans-serif" >Lowers reentry mass and improves</text>
<text x="1038" y="712" font-size="10" fill="#52565f" text-anchor="start" font-weight="500" font-family="Arial, 'Helvetica Neue', sans-serif" >parachute-recovery reliability.</text>
<text x="1038" y="732" font-size="10" fill="#52565f" text-anchor="start" font-weight="500" font-family="Arial, 'Helvetica Neue', sans-serif" ></text>
<text x="1038" y="752" font-size="10" fill="#52565f" text-anchor="start" font-weight="500" font-family="Arial, 'Helvetica Neue', sans-serif" >Only configuration remaining</text>
<text x="1038" y="772" font-size="10" fill="#52565f" text-anchor="start" font-weight="500" font-family="Arial, 'Helvetica Neue', sans-serif" >after final staging event.</text>
<text x="1038" y="792" font-size="10" fill="#52565f" text-anchor="start" font-weight="500" font-family="Arial, 'Helvetica Neue', sans-serif" ></text>
<text x="1038" y="812" font-size="10" fill="#52565f" text-anchor="start" font-weight="500" font-family="Arial, 'Helvetica Neue', sans-serif" >Touchdown under parachute alone;</text>
<text x="1038" y="832" font-size="10" fill="#52565f" text-anchor="start" font-weight="500" font-family="Arial, 'Helvetica Neue', sans-serif" >no powered descent stage carried.</text>
<text x="40" y="982" font-size="11.5" fill="#52565f" text-anchor="start" font-weight="500" font-family="Arial, 'Helvetica Neue', sans-serif" >Staging doctrine: one propulsion handoff at the core/mission interface, then a final capsule-only entry separation.</text>
<rect x="16" y="994" width="1368" height="70" fill="#fcfbf6" stroke="#16181d" stroke-width="1.6" rx="0" />
<text x="29" y="1012" font-size="9" fill="#52565f" text-anchor="start" font-weight="800" font-family="'Arial Narrow', Arial, 'Helvetica Neue', sans-serif" >PERSEUS 1</text>
<text x="29" y="1028" font-size="9" fill="#52565f" text-anchor="start" font-weight="800" font-family="'Arial Narrow', Arial, 'Helvetica Neue', sans-serif" >MISSION PACK</text>
<line x1="166" y1="994" x2="166" y2="1064" stroke="#16181d" stroke-width="1.1" />
<text x="179" y="1012" font-size="13" fill="#16181d" text-anchor="start" font-weight="800" font-family="Arial, 'Helvetica Neue', sans-serif" >STAGE SEPARATION SEQUENCE</text>
<text x="179" y="1032" font-size="9.5" fill="#52565f" text-anchor="start" font-weight="500" font-family="Arial, 'Helvetica Neue', sans-serif" >Kerbal Space Program — mission documentation appendix</text>
<line x1="894" y1="994" x2="894" y2="1064" stroke="#16181d" stroke-width="1.1" />
<text x="907" y="1012" font-size="8" fill="#8a8d93" text-anchor="start" font-weight="700" font-family="'Courier New', 'DejaVu Sans Mono', monospace" >DWG NO</text>
<text x="907" y="1027" font-size="12" fill="#16181d" text-anchor="start" font-weight="700" font-family="'Courier New', 'DejaVu Sans Mono', monospace" >KSP-PRS1-SS-02</text>
<line x1="1084" y1="994" x2="1084" y2="1064" stroke="#16181d" stroke-width="1.1" />
<text x="1097" y="1012" font-size="8" fill="#8a8d93" text-anchor="start" font-weight="700" font-family="'Courier New', 'DejaVu Sans Mono', monospace" >SCALE</text>
<text x="1097" y="1027" font-size="12" fill="#16181d" text-anchor="start" font-weight="700" font-family="'Courier New', 'DejaVu Sans Mono', monospace" >NTS</text>
<line x1="1234" y1="994" x2="1234" y2="1064" stroke="#16181d" stroke-width="1.1" />
<text x="1247" y="1012" font-size="8" fill="#8a8d93" text-anchor="start" font-weight="700" font-family="'Courier New', 'DejaVu Sans Mono', monospace" >SHEET</text>
<text x="1247" y="1027" font-size="12" fill="#16181d" text-anchor="start" font-weight="700" font-family="'Courier New', 'DejaVu Sans Mono', monospace" >2 OF 4  REV A</text>
</svg>