<svg xmlns="http://www.w3.org/2000/svg" width="1280" height="1500" viewBox="0 0 1280 1500">
<defs><pattern id="hatch" width="6" height="6" patternTransform="rotate(45)" patternUnits="userSpaceOnUse"><line x1="0" y1="0" x2="0" y2="6" stroke="#9aa0aa" stroke-width="1"/></pattern><pattern id="hatchBlue" width="7" height="7" patternTransform="rotate(45)" patternUnits="userSpaceOnUse"><line x1="0" y1="0" x2="0" y2="7" stroke="#0b3d91" stroke-width="1" opacity="0.30"/></pattern></defs>
<rect x="0" y="0" width="1280" height="1500" fill="#f6f4ec" stroke="none" stroke-width="1.6" rx="0" />
<line x1="16" y1="16" x2="16" y2="1484" stroke="#16181d" stroke-width="0.5" opacity="0.05" />
<line x1="40" y1="16" x2="40" y2="1484" stroke="#16181d" stroke-width="0.5" opacity="0.05" />
<line x1="64" y1="16" x2="64" y2="1484" stroke="#16181d" stroke-width="0.5" opacity="0.05" />
<line x1="88" y1="16" x2="88" y2="1484" stroke="#16181d" stroke-width="0.5" opacity="0.05" />
<line x1="112" y1="16" x2="112" y2="1484" stroke="#16181d" stroke-width="0.5" opacity="0.05" />
<line x1="136" y1="16" x2="136" y2="1484" stroke="#16181d" stroke-width="0.5" opacity="0.05" />
<line x1="160" y1="16" x2="160" y2="1484" stroke="#16181d" stroke-width="0.5" opacity="0.05" />
<line x1="184" y1="16" x2="184" y2="1484" stroke="#16181d" stroke-width="0.5" opacity="0.05" />
<line x1="208" y1="16" x2="208" y2="1484" stroke="#16181d" stroke-width="0.5" opacity="0.05" />
<line x1="232" y1="16" x2="232" y2="1484" stroke="#16181d" stroke-width="0.5" opacity="0.05" />
<line x1="256" y1="16" x2="256" y2="1484" stroke="#16181d" stroke-width="0.5" opacity="0.05" />
<line x1="280" y1="16" x2="280" y2="1484" stroke="#16181d" stroke-width="0.5" opacity="0.05" />
<line x1="304" y1="16" x2="304" y2="1484" stroke="#16181d" stroke-width="0.5" opacity="0.05" />
<line x1="328" y1="16" x2="328" y2="1484" stroke="#16181d" stroke-width="0.5" opacity="0.05" />
<line x1="352" y1="16" x2="352" y2="1484" stroke="#16181d" stroke-width="0.5" opacity="0.05" />
<line x1="376" y1="16" x2="376" y2="1484" stroke="#16181d" stroke-width="0.5" opacity="0.05" />
<line x1="400" y1="16" x2="400" y2="1484" stroke="#16181d" stroke-width="0.5" opacity="0.05" />
<line x1="424" y1="16" x2="424" y2="1484" stroke="#16181d" stroke-width="0.5" opacity="0.05" />
<line x1="448" y1="16" x2="448" y2="1484" stroke="#16181d" stroke-width="0.5" opacity="0.05" />
<line x1="472" y1="16" x2="472" y2="1484" stroke="#16181d" stroke-width="0.5" opacity="0.05" />
<line x1="496" y1="16" x2="496" y2="1484" stroke="#16181d" stroke-width="0.5" opacity="0.05" />
<line x1="520" y1="16" x2="520" y2="1484" stroke="#16181d" stroke-width="0.5" opacity="0.05" />
<line x1="544" y1="16" x2="544" y2="1484" stroke="#16181d" stroke-width="0.5" opacity="0.05" />
<line x1="568" y1="16" x2="568" y2="1484" stroke="#16181d" stroke-width="0.5" opacity="0.05" />
<line x1="592" y1="16" x2="592" y2="1484" stroke="#16181d" stroke-width="0.5" opacity="0.05" />
<line x1="616" y1="16" x2="616" y2="1484" stroke="#16181d" stroke-width="0.5" opacity="0.05" />
<line x1="640" y1="16" x2="640" y2="1484" stroke="#16181d" stroke-width="0.5" opacity="0.05" />
<line x1="664" y1="16" x2="664" y2="1484" stroke="#16181d" stroke-width="0.5" opacity="0.05" />
<line x1="688" y1="16" x2="688" y2="1484" stroke="#16181d" stroke-width="0.5" opacity="0.05" />
<line x1="712" y1="16" x2="712" y2="1484" stroke="#16181d" stroke-width="0.5" opacity="0.05" />
<line x1="736" y1="16" x2="736" y2="1484" stroke="#16181d" stroke-width="0.5" opacity="0.05" />
<line x1="760" y1="16" x2="760" y2="1484" stroke="#16181d" stroke-width="0.5" opacity="0.05" />
<line x1="784" y1="16" x2="784" y2="1484" stroke="#16181d" stroke-width="0.5" opacity="0.05" />
<line x1="808" y1="16" x2="808" y2="1484" stroke="#16181d" stroke-width="0.5" opacity="0.05" />
<line x1="832" y1="16" x2="832" y2="1484" stroke="#16181d" stroke-width="0.5" opacity="0.05" />
<line x1="856" y1="16" x2="856" y2="1484" stroke="#16181d" stroke-width="0.5" opacity="0.05" />
<line x1="880" y1="16" x2="880" y2="1484" stroke="#16181d" stroke-width="0.5" opacity="0.05" />
<line x1="904" y1="16" x2="904" y2="1484" stroke="#16181d" stroke-width="0.5" opacity="0.05" />
<line x1="928" y1="16" x2="928" y2="1484" stroke="#16181d" stroke-width="0.5" opacity="0.05" />
<line x1="952" y1="16" x2="952" y2="1484" stroke="#16181d" stroke-width="0.5" opacity="0.05" />
<line x1="976" y1="16" x2="976" y2="1484" stroke="#16181d" stroke-width="0.5" opacity="0.05" />
<line x1="1000" y1="16" x2="1000" y2="1484" stroke="#16181d" stroke-width="0.5" opacity="0.05" />
<line x1="1024" y1="16" x2="1024" y2="1484" stroke="#16181d" stroke-width="0.5" opacity="0.05" />
<line x1="1048" y1="16" x2="1048" y2="1484" stroke="#16181d" stroke-width="0.5" opacity="0.05" />
<line x1="1072" y1="16" x2="1072" y2="1484" stroke="#16181d" stroke-width="0.5" opacity="0.05" />
<line x1="1096" y1="16" x2="1096" y2="1484" stroke="#16181d" stroke-width="0.5" opacity="0.05" />
<line x1="1120" y1="16" x2="1120" y2="1484" stroke="#16181d" stroke-width="0.5" opacity="0.05" />
<line x1="1144" y1="16" x2="1144" y2="1484" stroke="#16181d" stroke-width="0.5" opacity="0.05" />
<line x1="1168" y1="16" x2="1168" y2="1484" stroke="#16181d" stroke-width="0.5" opacity="0.05" />
<line x1="1192" y1="16" x2="1192" y2="1484" stroke="#16181d" stroke-width="0.5" opacity="0.05" />
<line x1="1216" y1="16" x2="1216" y2="1484" stroke="#16181d" stroke-width="0.5" opacity="0.05" />
<line x1="1240" y1="16" x2="1240" y2="1484" stroke="#16181d" stroke-width="0.5" opacity="0.05" />
<line x1="1264" y1="16" x2="1264" y2="1484" stroke="#16181d" stroke-width="0.5" opacity="0.05" />
<line x1="16" y1="16" x2="1264" y2="16" stroke="#16181d" stroke-width="0.5" opacity="0.05" />
<line x1="16" y1="40" x2="1264" y2="40" stroke="#16181d" stroke-width="0.5" opacity="0.05" />
<line x1="16" y1="64" x2="1264" y2="64" stroke="#16181d" stroke-width="0.5" opacity="0.05" />
<line x1="16" y1="88" x2="1264" y2="88" stroke="#16181d" stroke-width="0.5" opacity="0.05" />
<line x1="16" y1="112" x2="1264" y2="112" stroke="#16181d" stroke-width="0.5" opacity="0.05" />
<line x1="16" y1="136" x2="1264" y2="136" stroke="#16181d" stroke-width="0.5" opacity="0.05" />
<line x1="16" y1="160" x2="1264" y2="160" stroke="#16181d" stroke-width="0.5" opacity="0.05" />
<line x1="16" y1="184" x2="1264" y2="184" stroke="#16181d" stroke-width="0.5" opacity="0.05" />
<line x1="16" y1="208" x2="1264" y2="208" stroke="#16181d" stroke-width="0.5" opacity="0.05" />
<line x1="16" y1="232" x2="1264" y2="232" stroke="#16181d" stroke-width="0.5" opacity="0.05" />
<line x1="16" y1="256" x2="1264" y2="256" stroke="#16181d" stroke-width="0.5" opacity="0.05" />
<line x1="16" y1="280" x2="1264" y2="280" stroke="#16181d" stroke-width="0.5" opacity="0.05" />
<line x1="16" y1="304" x2="1264" y2="304" stroke="#16181d" stroke-width="0.5" opacity="0.05" />
<line x1="16" y1="328" x2="1264" y2="328" stroke="#16181d" stroke-width="0.5" opacity="0.05" />
<line x1="16" y1="352" x2="1264" y2="352" stroke="#16181d" stroke-width="0.5" opacity="0.05" />
<line x1="16" y1="376" x2="1264" y2="376" stroke="#16181d" stroke-width="0.5" opacity="0.05" />
<line x1="16" y1="400" x2="1264" y2="400" stroke="#16181d" stroke-width="0.5" opacity="0.05" />
<line x1="16" y1="424" x2="1264" y2="424" stroke="#16181d" stroke-width="0.5" opacity="0.05" />
<line x1="16" y1="448" x2="1264" y2="448" stroke="#16181d" stroke-width="0.5" opacity="0.05" />
<line x1="16" y1="472" x2="1264" y2="472" stroke="#16181d" stroke-width="0.5" opacity="0.05" />
<line x1="16" y1="496" x2="1264" y2="496" stroke="#16181d" stroke-width="0.5" opacity="0.05" />
<line x1="16" y1="520" x2="1264" y2="520" stroke="#16181d" stroke-width="0.5" opacity="0.05" />
<line x1="16" y1="544" x2="1264" y2="544" stroke="#16181d" stroke-width="0.5" opacity="0.05" />
<line x1="16" y1="568" x2="1264" y2="568" stroke="#16181d" stroke-width="0.5" opacity="0.05" />
<line x1="16" y1="592" x2="1264" y2="592" stroke="#16181d" stroke-width="0.5" opacity="0.05" />
<line x1="16" y1="616" x2="1264" y2="616" stroke="#16181d" stroke-width="0.5" opacity="0.05" />
<line x1="16" y1="640" x2="1264" y2="640" stroke="#16181d" stroke-width="0.5" opacity="0.05" />
<line x1="16" y1="664" x2="1264" y2="664" stroke="#16181d" stroke-width="0.5" opacity="0.05" />
<line x1="16" y1="688" x2="1264" y2="688" stroke="#16181d" stroke-width="0.5" opacity="0.05" />
<line x1="16" y1="712" x2="1264" y2="712" stroke="#16181d" stroke-width="0.5" opacity="0.05" />
<line x1="16" y1="736" x2="1264" y2="736" stroke="#16181d" stroke-width="0.5" opacity="0.05" />
<line x1="16" y1="760" x2="1264" y2="760" stroke="#16181d" stroke-width="0.5" opacity="0.05" />
<line x1="16" y1="784" x2="1264" y2="784" stroke="#16181d" stroke-width="0.5" opacity="0.05" />
<line x1="16" y1="808" x2="1264" y2="808" stroke="#16181d" stroke-width="0.5" opacity="0.05" />
<line x1="16" y1="832" x2="1264" y2="832" stroke="#16181d" stroke-width="0.5" opacity="0.05" />
<line x1="16" y1="856" x2="1264" y2="856" stroke="#16181d" stroke-width="0.5" opacity="0.05" />
<line x1="16" y1="880" x2="1264" y2="880" stroke="#16181d" stroke-width="0.5" opacity="0.05" />
<line x1="16" y1="904" x2="1264" y2="904" stroke="#16181d" stroke-width="0.5" opacity="0.05" />
<line x1="16" y1="928" x2="1264" y2="928" stroke="#16181d" stroke-width="0.5" opacity="0.05" />
<line x1="16" y1="952" x2="1264" y2="952" stroke="#16181d" stroke-width="0.5" opacity="0.05" />
<line x1="16" y1="976" x2="1264" y2="976" stroke="#16181d" stroke-width="0.5" opacity="0.05" />
<line x1="16" y1="1000" x2="1264" y2="1000" stroke="#16181d" stroke-width="0.5" opacity="0.05" />
<line x1="16" y1="1024" x2="1264" y2="1024" stroke="#16181d" stroke-width="0.5" opacity="0.05" />
<line x1="16" y1="1048" x2="1264" y2="1048" stroke="#16181d" stroke-width="0.5" opacity="0.05" />
<line x1="16" y1="1072" x2="1264" y2="1072" stroke="#16181d" stroke-width="0.5" opacity="0.05" />
<line x1="16" y1="1096" x2="1264" y2="1096" stroke="#16181d" stroke-width="0.5" opacity="0.05" />
<line x1="16" y1="1120" x2="1264" y2="1120" stroke="#16181d" stroke-width="0.5" opacity="0.05" />
<line x1="16" y1="1144" x2="1264" y2="1144" stroke="#16181d" stroke-width="0.5" opacity="0.05" />
<line x1="16" y1="1168" x2="1264" y2="1168" stroke="#16181d" stroke-width="0.5" opacity="0.05" />
<line x1="16" y1="1192" x2="1264" y2="1192" stroke="#16181d" stroke-width="0.5" opacity="0.05" />
<line x1="16" y1="1216" x2="1264" y2="1216" stroke="#16181d" stroke-width="0.5" opacity="0.05" />
<line x1="16" y1="1240" x2="1264" y2="1240" stroke="#16181d" stroke-width="0.5" opacity="0.05" />
<line x1="16" y1="1264" x2="1264" y2="1264" stroke="#16181d" stroke-width="0.5" opacity="0.05" />
<line x1="16" y1="1288" x2="1264" y2="1288" stroke="#16181d" stroke-width="0.5" opacity="0.05" />
<line x1="16" y1="1312" x2="1264" y2="1312" stroke="#16181d" stroke-width="0.5" opacity="0.05" />
<line x1="16" y1="1336" x2="1264" y2="1336" stroke="#16181d" stroke-width="0.5" opacity="0.05" />
<line x1="16" y1="1360" x2="1264" y2="1360" stroke="#16181d" stroke-width="0.5" opacity="0.05" />
<line x1="16" y1="1384" x2="1264" y2="1384" stroke="#16181d" stroke-width="0.5" opacity="0.05" />
<line x1="16" y1="1408" x2="1264" y2="1408" stroke="#16181d" stroke-width="0.5" opacity="0.05" />
<line x1="16" y1="1432" x2="1264" y2="1432" stroke="#16181d" stroke-width="0.5" opacity="0.05" />
<line x1="16" y1="1456" x2="1264" y2="1456" stroke="#16181d" stroke-width="0.5" opacity="0.05" />
<line x1="16" y1="1480" x2="1264" y2="1480" stroke="#16181d" stroke-width="0.5" opacity="0.05" />
<rect x="16" y="16" width="1248" height="1468" fill="none" stroke="#16181d" stroke-width="2.4" rx="0" />
<rect x="23" y="23" width="1234" height="1454" fill="none" stroke="#16181d" stroke-width="0.8" rx="0" />
<line x1="10" y1="16" x2="34" y2="16" stroke="#16181d" stroke-width="1.6" />
<line x1="16" y1="10" x2="16" y2="34" stroke="#16181d" stroke-width="1.6" />
<line x1="1270" y1="16" x2="1246" y2="16" stroke="#16181d" stroke-width="1.6" />
<line x1="1264" y1="10" x2="1264" y2="34" stroke="#16181d" stroke-width="1.6" />
<line x1="10" y1="1484" x2="34" y2="1484" stroke="#16181d" stroke-width="1.6" />
<line x1="16" y1="1490" x2="16" y2="1466" stroke="#16181d" stroke-width="1.6" />
<line x1="1270" y1="1484" x2="1246" y2="1484" stroke="#16181d" stroke-width="1.6" />
<line x1="1264" y1="1490" x2="1264" y2="1466" stroke="#16181d" stroke-width="1.6" />
<circle cx="66" cy="76" r="29" fill="#fcfbf6" stroke="#16181d" stroke-width="1.8" />
<circle cx="66" cy="76" r="23" fill="none" stroke="#0b3d91" stroke-width="1.1" />
<polygon points="64.5,60 67.5,60 71,84 61,84" fill="#16181d" stroke="#16181d" stroke-width="1.6" />
<polygon points="61,84 57,91 62,87" fill="#c81d25" stroke="#16181d" stroke-width="1.6" />
<polygon points="71,84 75,91 70,87" fill="#c81d25" stroke="#16181d" stroke-width="1.6" />
<ellipse cx="66" cy="77" rx="18" ry="6.5" fill="none" stroke="#16181d" stroke-width="1" transform="rotate(-20 66 77)"/>
<text x="66" y="117" font-size="8.5" fill="#16181d" text-anchor="middle" font-weight="800" font-family="'Arial Narrow', Arial, 'Helvetica Neue', sans-serif" letter-spacing="1.5" >PERSEUS · I</text>
<text x="150" y="56" font-size="10.5" fill="#0b3d91" text-anchor="start" font-weight="800" font-family="'Arial Narrow', Arial, 'Helvetica Neue', sans-serif" letter-spacing="1.2" >PERSEUS 1 · MISSION PACK · APPENDIX D</text>
<text x="150" y="96" font-size="30" fill="#16181d" text-anchor="start" font-weight="800" font-family="'Arial Narrow', Arial, 'Helvetica Neue', sans-serif" >ASCENT GUIDANCE PROGRAM</text>
<text x="150" y="122" font-size="12.5" fill="#52565f" text-anchor="start" font-weight="500" font-family="Arial, 'Helvetica Neue', sans-serif" >Powered flight sequence · pitch &amp; roll program · nominal values (NTS)</text>
<line x1="40" y1="140" x2="1240" y2="140" stroke="#16181d" stroke-width="1.3" />
<text x="40" y="174" font-size="10" fill="#8a8d93" text-anchor="start" font-weight="800" font-family="'Courier New', 'DejaVu Sans Mono', monospace" letter-spacing="0.5" >POWERED FLIGHT SEQUENCE — NOMINAL (20% HAMMER, SWIVEL 100%)</text>
<rect x="40" y="186" width="1200" height="480" fill="#fcfbf6" stroke="#16181d" stroke-width="1.6" rx="0" />
<rect x="40" y="186" width="1200" height="40" fill="#dde3ee" stroke="#16181d" stroke-width="1.6" rx="0" />
<text x="47" y="211" font-size="9.5" fill="#16181d" text-anchor="start" font-weight="800" font-family="'Courier New', 'DejaVu Sans Mono', monospace" letter-spacing="0.3" >EVENT</text>
<text x="165" y="211" font-size="9.5" fill="#16181d" text-anchor="start" font-weight="800" font-family="'Courier New', 'DejaVu Sans Mono', monospace" letter-spacing="0.3" >MET</text>
<text x="231" y="211" font-size="9.5" fill="#16181d" text-anchor="start" font-weight="800" font-family="'Courier New', 'DejaVu Sans Mono', monospace" letter-spacing="0.3" >ALT</text>
<text x="295" y="211" font-size="9.5" fill="#16181d" text-anchor="start" font-weight="800" font-family="'Courier New', 'DejaVu Sans Mono', monospace" letter-spacing="0.3" >V (M/S)</text>
<text x="353" y="211" font-size="9.5" fill="#16181d" text-anchor="start" font-weight="800" font-family="'Courier New', 'DejaVu Sans Mono', monospace" letter-spacing="0.3" >PITCH</text>
<text x="403" y="211" font-size="9.5" fill="#16181d" text-anchor="start" font-weight="800" font-family="'Courier New', 'DejaVu Sans Mono', monospace" letter-spacing="0.3" >ROLL</text>
<text x="459" y="211" font-size="9.5" fill="#16181d" text-anchor="start" font-weight="800" font-family="'Courier New', 'DejaVu Sans Mono', monospace" letter-spacing="0.3" >ACTION</text>
<line x1="158" y1="186" x2="158" y2="666" stroke="#16181d" stroke-width="0.7" opacity="0.3" />
<line x1="224" y1="186" x2="224" y2="666" stroke="#16181d" stroke-width="0.7" opacity="0.3" />
<line x1="288" y1="186" x2="288" y2="666" stroke="#16181d" stroke-width="0.7" opacity="0.3" />
<line x1="346" y1="186" x2="346" y2="666" stroke="#16181d" stroke-width="0.7" opacity="0.3" />
<line x1="396" y1="186" x2="396" y2="666" stroke="#16181d" stroke-width="0.7" opacity="0.3" />
<line x1="452" y1="186" x2="452" y2="666" stroke="#16181d" stroke-width="0.7" opacity="0.3" />
<text x="47" y="244" font-size="9.5" fill="#0b3d91" text-anchor="start" font-weight="800" font-family="'Courier New', 'DejaVu Sans Mono', monospace" >LIFTOFF</text>
<text x="47" y="257" font-size="8" fill="#8a8d93" text-anchor="start" font-weight="600" font-family="'Courier New', 'DejaVu Sans Mono', monospace" ></text>
<text x="165" y="251" font-size="9" fill="#52565f" text-anchor="start" font-weight="700" font-family="'Courier New', 'DejaVu Sans Mono', monospace" >T+00:00</text>
<text x="231" y="251" font-size="9" fill="#52565f" text-anchor="start" font-weight="700" font-family="'Courier New', 'DejaVu Sans Mono', monospace" >PAD</text>
<text x="295" y="251" font-size="9" fill="#52565f" text-anchor="start" font-weight="700" font-family="'Courier New', 'DejaVu Sans Mono', monospace" >0</text>
<text x="353" y="251" font-size="9" fill="#16181d" text-anchor="start" font-weight="800" font-family="'Courier New', 'DejaVu Sans Mono', monospace" >0°</text>
<text x="403" y="251" font-size="9" fill="#16181d" text-anchor="start" font-weight="800" font-family="'Courier New', 'DejaVu Sans Mono', monospace" >HOLD</text>
<text x="459" y="251" font-size="8.3" fill="#52565f" text-anchor="start" font-weight="600" font-family="Arial, 'Helvetica Neue', sans-serif" >Swivel 100%, Hammers ignite. Hold vertical. SAS ON.</text>
<rect x="40" y="266" width="1200" height="40" fill="#16181d" stroke="#16181d" stroke-width="0" rx="0" opacity="0.025" />
<text x="47" y="284" font-size="9.5" fill="#16181d" text-anchor="start" font-weight="800" font-family="'Courier New', 'DejaVu Sans Mono', monospace" >PITCH PROGRAM</text>
<text x="47" y="297" font-size="8" fill="#8a8d93" text-anchor="start" font-weight="600" font-family="'Courier New', 'DejaVu Sans Mono', monospace" >T+00:08</text>
<text x="165" y="291" font-size="9" fill="#52565f" text-anchor="start" font-weight="700" font-family="'Courier New', 'DejaVu Sans Mono', monospace" >T+00:08</text>
<text x="231" y="291" font-size="9" fill="#52565f" text-anchor="start" font-weight="700" font-family="'Courier New', 'DejaVu Sans Mono', monospace" >250 M</text>
<text x="295" y="291" font-size="9" fill="#52565f" text-anchor="start" font-weight="700" font-family="'Courier New', 'DejaVu Sans Mono', monospace" >60</text>
<text x="353" y="291" font-size="9" fill="#16181d" text-anchor="start" font-weight="800" font-family="'Courier New', 'DejaVu Sans Mono', monospace" >1°</text>
<text x="403" y="291" font-size="9" fill="#16181d" text-anchor="start" font-weight="800" font-family="'Courier New', 'DejaVu Sans Mono', monospace" >HOLD</text>
<text x="459" y="291" font-size="8.3" fill="#52565f" text-anchor="start" font-weight="600" font-family="Arial, 'Helvetica Neue', sans-serif" >Begin gentle pitch east. Initiate gravity turn.</text>
<line x1="40" y1="266" x2="1240" y2="266" stroke="#16181d" stroke-width="0.6" opacity="0.25" />
<text x="47" y="324" font-size="9.5" fill="#16181d" text-anchor="start" font-weight="800" font-family="'Courier New', 'DejaVu Sans Mono', monospace" >ROLL PROGRAM</text>
<text x="47" y="337" font-size="8" fill="#8a8d93" text-anchor="start" font-weight="600" font-family="'Courier New', 'DejaVu Sans Mono', monospace" >T+00:10</text>
<text x="165" y="331" font-size="9" fill="#52565f" text-anchor="start" font-weight="700" font-family="'Courier New', 'DejaVu Sans Mono', monospace" >T+00:10</text>
<text x="231" y="331" font-size="9" fill="#52565f" text-anchor="start" font-weight="700" font-family="'Courier New', 'DejaVu Sans Mono', monospace" >350 M</text>
<text x="295" y="331" font-size="9" fill="#52565f" text-anchor="start" font-weight="700" font-family="'Courier New', 'DejaVu Sans Mono', monospace" >70</text>
<text x="353" y="331" font-size="9" fill="#16181d" text-anchor="start" font-weight="800" font-family="'Courier New', 'DejaVu Sans Mono', monospace" >2°</text>
<text x="403" y="331" font-size="9" fill="#16181d" text-anchor="start" font-weight="800" font-family="'Courier New', 'DejaVu Sans Mono', monospace" >90° E</text>
<text x="459" y="331" font-size="8.3" fill="#52565f" text-anchor="start" font-weight="600" font-family="Arial, 'Helvetica Neue', sans-serif" >Roll to flight heading 090. Establish downrange azimuth.</text>
<line x1="40" y1="306" x2="1240" y2="306" stroke="#16181d" stroke-width="0.6" opacity="0.25" />
<rect x="40" y="346" width="1200" height="40" fill="#16181d" stroke="#16181d" stroke-width="0" rx="0" opacity="0.025" />
<text x="47" y="364" font-size="9.5" fill="#16181d" text-anchor="start" font-weight="800" font-family="'Courier New', 'DejaVu Sans Mono', monospace" >THROTTLE WATCH</text>
<text x="47" y="377" font-size="8" fill="#8a8d93" text-anchor="start" font-weight="600" font-family="'Courier New', 'DejaVu Sans Mono', monospace" >T+00:16</text>
<text x="165" y="371" font-size="9" fill="#52565f" text-anchor="start" font-weight="700" font-family="'Courier New', 'DejaVu Sans Mono', monospace" >T+00:16</text>
<text x="231" y="371" font-size="9" fill="#52565f" text-anchor="start" font-weight="700" font-family="'Courier New', 'DejaVu Sans Mono', monospace" >1.0 KM</text>
<text x="295" y="371" font-size="9" fill="#52565f" text-anchor="start" font-weight="700" font-family="'Courier New', 'DejaVu Sans Mono', monospace" >130</text>
<text x="353" y="371" font-size="9" fill="#16181d" text-anchor="start" font-weight="800" font-family="'Courier New', 'DejaVu Sans Mono', monospace" >3°</text>
<text x="403" y="371" font-size="9" fill="#16181d" text-anchor="start" font-weight="800" font-family="'Courier New', 'DejaVu Sans Mono', monospace" >HOLD</text>
<text x="459" y="371" font-size="8.3" fill="#52565f" text-anchor="start" font-weight="600" font-family="Arial, 'Helvetica Neue', sans-serif" >Confirm prograde tracking. Keep nose near velocity vector.</text>
<line x1="40" y1="346" x2="1240" y2="346" stroke="#16181d" stroke-width="0.6" opacity="0.25" />
<text x="47" y="404" font-size="9.5" fill="#5c3d8c" text-anchor="start" font-weight="800" font-family="'Courier New', 'DejaVu Sans Mono', monospace" >BOOSTER SEP</text>
<text x="47" y="417" font-size="8" fill="#8a8d93" text-anchor="start" font-weight="600" font-family="'Courier New', 'DejaVu Sans Mono', monospace" >T+00:25</text>
<text x="165" y="411" font-size="9" fill="#52565f" text-anchor="start" font-weight="700" font-family="'Courier New', 'DejaVu Sans Mono', monospace" >T+00:25</text>
<text x="231" y="411" font-size="9" fill="#52565f" text-anchor="start" font-weight="700" font-family="'Courier New', 'DejaVu Sans Mono', monospace" >2.9 KM</text>
<text x="295" y="411" font-size="9" fill="#52565f" text-anchor="start" font-weight="700" font-family="'Courier New', 'DejaVu Sans Mono', monospace" >253</text>
<text x="353" y="411" font-size="9" fill="#16181d" text-anchor="start" font-weight="800" font-family="'Courier New', 'DejaVu Sans Mono', monospace" >9°</text>
<text x="403" y="411" font-size="9" fill="#16181d" text-anchor="start" font-weight="800" font-family="'Courier New', 'DejaVu Sans Mono', monospace" >HOLD</text>
<text x="459" y="411" font-size="8.3" fill="#52565f" text-anchor="start" font-weight="600" font-family="Arial, 'Helvetica Neue', sans-serif" >Hammer burnout &amp; jettison. Confirm core stable.</text>
<line x1="40" y1="386" x2="1240" y2="386" stroke="#16181d" stroke-width="0.6" opacity="0.25" />
<rect x="40" y="426" width="1200" height="40" fill="#16181d" stroke="#16181d" stroke-width="0" rx="0" opacity="0.025" />
<text x="47" y="444" font-size="9.5" fill="#c81d25" text-anchor="start" font-weight="800" font-family="'Courier New', 'DejaVu Sans Mono', monospace" >MAX Q</text>
<text x="47" y="457" font-size="8" fill="#8a8d93" text-anchor="start" font-weight="600" font-family="'Courier New', 'DejaVu Sans Mono', monospace" >T+00:30</text>
<text x="165" y="451" font-size="9" fill="#52565f" text-anchor="start" font-weight="700" font-family="'Courier New', 'DejaVu Sans Mono', monospace" >T+00:30</text>
<text x="231" y="451" font-size="9" fill="#52565f" text-anchor="start" font-weight="700" font-family="'Courier New', 'DejaVu Sans Mono', monospace" >3.5 KM</text>
<text x="295" y="451" font-size="9" fill="#52565f" text-anchor="start" font-weight="700" font-family="'Courier New', 'DejaVu Sans Mono', monospace" >275</text>
<text x="353" y="451" font-size="9" fill="#16181d" text-anchor="start" font-weight="800" font-family="'Courier New', 'DejaVu Sans Mono', monospace" >14°</text>
<text x="403" y="451" font-size="9" fill="#16181d" text-anchor="start" font-weight="800" font-family="'Courier New', 'DejaVu Sans Mono', monospace" >HOLD</text>
<text x="459" y="451" font-size="8.3" fill="#52565f" text-anchor="start" font-weight="600" font-family="Arial, 'Helvetica Neue', sans-serif" >Through max dynamic pressure. Steering smooth, near prograde.</text>
<line x1="40" y1="426" x2="1240" y2="426" stroke="#16181d" stroke-width="0.6" opacity="0.25" />
<text x="47" y="484" font-size="9.5" fill="#16181d" text-anchor="start" font-weight="800" font-family="'Courier New', 'DejaVu Sans Mono', monospace" >PITCH 45</text>
<text x="47" y="497" font-size="8" fill="#8a8d93" text-anchor="start" font-weight="600" font-family="'Courier New', 'DejaVu Sans Mono', monospace" >T+00:48</text>
<text x="165" y="491" font-size="9" fill="#52565f" text-anchor="start" font-weight="700" font-family="'Courier New', 'DejaVu Sans Mono', monospace" >T+00:48</text>
<text x="231" y="491" font-size="9" fill="#52565f" text-anchor="start" font-weight="700" font-family="'Courier New', 'DejaVu Sans Mono', monospace" >10.0 KM</text>
<text x="295" y="491" font-size="9" fill="#52565f" text-anchor="start" font-weight="700" font-family="'Courier New', 'DejaVu Sans Mono', monospace" >460</text>
<text x="353" y="491" font-size="9" fill="#16181d" text-anchor="start" font-weight="800" font-family="'Courier New', 'DejaVu Sans Mono', monospace" >37°</text>
<text x="403" y="491" font-size="9" fill="#16181d" text-anchor="start" font-weight="800" font-family="'Courier New', 'DejaVu Sans Mono', monospace" >HOLD</text>
<text x="459" y="491" font-size="8.3" fill="#52565f" text-anchor="start" font-weight="600" font-family="Arial, 'Helvetica Neue', sans-serif" >Approx 45° from vertical. Hand off to gravity turn.</text>
<line x1="40" y1="466" x2="1240" y2="466" stroke="#16181d" stroke-width="0.6" opacity="0.25" />
<rect x="40" y="506" width="1200" height="40" fill="#16181d" stroke="#16181d" stroke-width="0" rx="0" opacity="0.025" />
<text x="47" y="524" font-size="9.5" fill="#c81d25" text-anchor="start" font-weight="800" font-family="'Courier New', 'DejaVu Sans Mono', monospace" >CORE BURNOUT</text>
<text x="47" y="537" font-size="8" fill="#8a8d93" text-anchor="start" font-weight="600" font-family="'Courier New', 'DejaVu Sans Mono', monospace" >T+01:01</text>
<text x="165" y="531" font-size="9" fill="#52565f" text-anchor="start" font-weight="700" font-family="'Courier New', 'DejaVu Sans Mono', monospace" >T+01:01</text>
<text x="231" y="531" font-size="9" fill="#52565f" text-anchor="start" font-weight="700" font-family="'Courier New', 'DejaVu Sans Mono', monospace" >14.9 KM</text>
<text x="295" y="531" font-size="9" fill="#52565f" text-anchor="start" font-weight="700" font-family="'Courier New', 'DejaVu Sans Mono', monospace" >643</text>
<text x="353" y="531" font-size="9" fill="#16181d" text-anchor="start" font-weight="800" font-family="'Courier New', 'DejaVu Sans Mono', monospace" >50°</text>
<text x="403" y="531" font-size="9" fill="#16181d" text-anchor="start" font-weight="800" font-family="'Courier New', 'DejaVu Sans Mono', monospace" >HOLD</text>
<text x="459" y="531" font-size="8.3" fill="#52565f" text-anchor="start" font-weight="600" font-family="Arial, 'Helvetica Neue', sans-serif" >Lower FL-T800 dry. Stage: jettison core, ignite Terrier.</text>
<line x1="40" y1="506" x2="1240" y2="506" stroke="#16181d" stroke-width="0.6" opacity="0.25" />
<text x="47" y="564" font-size="9.5" fill="#0e6e5c" text-anchor="start" font-weight="800" font-family="'Courier New', 'DejaVu Sans Mono', monospace" >TERRIER ASCENT</text>
<text x="47" y="577" font-size="8" fill="#8a8d93" text-anchor="start" font-weight="600" font-family="'Courier New', 'DejaVu Sans Mono', monospace" >T+01:03</text>
<text x="165" y="571" font-size="9" fill="#52565f" text-anchor="start" font-weight="700" font-family="'Courier New', 'DejaVu Sans Mono', monospace" >T+01:03</text>
<text x="231" y="571" font-size="9" fill="#52565f" text-anchor="start" font-weight="700" font-family="'Courier New', 'DejaVu Sans Mono', monospace" >15+ KM</text>
<text x="295" y="571" font-size="9" fill="#52565f" text-anchor="start" font-weight="700" font-family="'Courier New', 'DejaVu Sans Mono', monospace" >650</text>
<text x="353" y="571" font-size="9" fill="#16181d" text-anchor="start" font-weight="800" font-family="'Courier New', 'DejaVu Sans Mono', monospace" >PRO</text>
<text x="403" y="571" font-size="9" fill="#16181d" text-anchor="start" font-weight="800" font-family="'Courier New', 'DejaVu Sans Mono', monospace" >HOLD</text>
<text x="459" y="571" font-size="8.3" fill="#52565f" text-anchor="start" font-weight="600" font-family="Arial, 'Helvetica Neue', sans-serif" >Terrier finishes climb. Track prograde to apoapsis target.</text>
<line x1="40" y1="546" x2="1240" y2="546" stroke="#16181d" stroke-width="0.6" opacity="0.25" />
<rect x="40" y="586" width="1200" height="40" fill="#16181d" stroke="#16181d" stroke-width="0" rx="0" opacity="0.025" />
<text x="47" y="604" font-size="9.5" fill="#0e6e5c" text-anchor="start" font-weight="800" font-family="'Courier New', 'DejaVu Sans Mono', monospace" >APO SHAPING</text>
<text x="47" y="617" font-size="8" fill="#8a8d93" text-anchor="start" font-weight="600" font-family="'Courier New', 'DejaVu Sans Mono', monospace" >--</text>
<text x="165" y="611" font-size="9" fill="#52565f" text-anchor="start" font-weight="700" font-family="'Courier New', 'DejaVu Sans Mono', monospace" >--</text>
<text x="231" y="611" font-size="9" fill="#52565f" text-anchor="start" font-weight="700" font-family="'Courier New', 'DejaVu Sans Mono', monospace" >70-85 KM</text>
<text x="295" y="611" font-size="9" fill="#52565f" text-anchor="start" font-weight="700" font-family="'Courier New', 'DejaVu Sans Mono', monospace" >VAR</text>
<text x="353" y="611" font-size="9" fill="#16181d" text-anchor="start" font-weight="800" font-family="'Courier New', 'DejaVu Sans Mono', monospace" >PRO</text>
<text x="403" y="611" font-size="9" fill="#16181d" text-anchor="start" font-weight="800" font-family="'Courier New', 'DejaVu Sans Mono', monospace" >HOLD</text>
<text x="459" y="611" font-size="8.3" fill="#52565f" text-anchor="start" font-weight="600" font-family="Arial, 'Helvetica Neue', sans-serif" >Coast/burn to set apoapsis ~80 km (upper end of band).</text>
<line x1="40" y1="586" x2="1240" y2="586" stroke="#16181d" stroke-width="0.6" opacity="0.25" />
<text x="47" y="644" font-size="9.5" fill="#0e6e5c" text-anchor="start" font-weight="800" font-family="'Courier New', 'DejaVu Sans Mono', monospace" >CIRCULARIZE</text>
<text x="47" y="657" font-size="8" fill="#8a8d93" text-anchor="start" font-weight="600" font-family="'Courier New', 'DejaVu Sans Mono', monospace" >--</text>
<text x="165" y="651" font-size="9" fill="#52565f" text-anchor="start" font-weight="700" font-family="'Courier New', 'DejaVu Sans Mono', monospace" >--</text>
<text x="231" y="651" font-size="9" fill="#52565f" text-anchor="start" font-weight="700" font-family="'Courier New', 'DejaVu Sans Mono', monospace" >~80 KM</text>
<text x="295" y="651" font-size="9" fill="#52565f" text-anchor="start" font-weight="700" font-family="'Courier New', 'DejaVu Sans Mono', monospace" >2279</text>
<text x="353" y="651" font-size="9" fill="#16181d" text-anchor="start" font-weight="800" font-family="'Courier New', 'DejaVu Sans Mono', monospace" >PRO</text>
<text x="403" y="651" font-size="9" fill="#16181d" text-anchor="start" font-weight="800" font-family="'Courier New', 'DejaVu Sans Mono', monospace" >HOLD</text>
<text x="459" y="651" font-size="8.3" fill="#52565f" text-anchor="start" font-weight="600" font-family="Arial, 'Helvetica Neue', sans-serif" >Begin burn ~½ burn-time BEFORE apoapsis. Burn until Pe rises to ~80 km.</text>
<line x1="40" y1="626" x2="1240" y2="626" stroke="#16181d" stroke-width="0.6" opacity="0.25" />
<rect x="40" y="706" width="725.4" height="380" fill="#fcfbf6" stroke="#16181d" stroke-width="1.4" rx="0" />
<text x="50" y="724" font-size="8.5" fill="#8a8d93" text-anchor="start" font-weight="800" font-family="'Courier New', 'DejaVu Sans Mono', monospace" letter-spacing="0.3" >ASCENT TRAJECTORY — ALTITUDE vs DOWNRANGE</text>
<line x1="86" y1="1052.0" x2="747.4" y2="1052.0" stroke="#8a8d93" stroke-width="0.5" opacity="0.4" />
<text x="80" y="1055.0" font-size="7.5" fill="#8a8d93" text-anchor="end" font-weight="600" font-family="'Courier New', 'DejaVu Sans Mono', monospace" >0</text>
<line x1="86" y1="1013.0" x2="747.4" y2="1013.0" stroke="#8a8d93" stroke-width="0.5" opacity="0.4" />
<text x="80" y="1016.0" font-size="7.5" fill="#8a8d93" text-anchor="end" font-weight="600" font-family="'Courier New', 'DejaVu Sans Mono', monospace" >2</text>
<line x1="86" y1="974.0" x2="747.4" y2="974.0" stroke="#8a8d93" stroke-width="0.5" opacity="0.4" />
<text x="80" y="977.0" font-size="7.5" fill="#8a8d93" text-anchor="end" font-weight="600" font-family="'Courier New', 'DejaVu Sans Mono', monospace" >4</text>
<line x1="86" y1="935.0" x2="747.4" y2="935.0" stroke="#8a8d93" stroke-width="0.5" opacity="0.4" />
<text x="80" y="938.0" font-size="7.5" fill="#8a8d93" text-anchor="end" font-weight="600" font-family="'Courier New', 'DejaVu Sans Mono', monospace" >6</text>
<line x1="86" y1="896.0" x2="747.4" y2="896.0" stroke="#8a8d93" stroke-width="0.5" opacity="0.4" />
<text x="80" y="899.0" font-size="7.5" fill="#8a8d93" text-anchor="end" font-weight="600" font-family="'Courier New', 'DejaVu Sans Mono', monospace" >8</text>
<line x1="86" y1="857.0" x2="747.4" y2="857.0" stroke="#8a8d93" stroke-width="0.5" opacity="0.4" />
<text x="80" y="860.0" font-size="7.5" fill="#8a8d93" text-anchor="end" font-weight="600" font-family="'Courier New', 'DejaVu Sans Mono', monospace" >10</text>
<line x1="86" y1="818.0" x2="747.4" y2="818.0" stroke="#8a8d93" stroke-width="0.5" opacity="0.4" />
<text x="80" y="821.0" font-size="7.5" fill="#8a8d93" text-anchor="end" font-weight="600" font-family="'Courier New', 'DejaVu Sans Mono', monospace" >12</text>
<line x1="86" y1="779.0" x2="747.4" y2="779.0" stroke="#8a8d93" stroke-width="0.5" opacity="0.4" />
<text x="80" y="782.0" font-size="7.5" fill="#8a8d93" text-anchor="end" font-weight="600" font-family="'Courier New', 'DejaVu Sans Mono', monospace" >14</text>
<line x1="86" y1="740.0" x2="747.4" y2="740.0" stroke="#8a8d93" stroke-width="0.5" opacity="0.4" />
<text x="80" y="743.0" font-size="7.5" fill="#8a8d93" text-anchor="end" font-weight="600" font-family="'Courier New', 'DejaVu Sans Mono', monospace" >16</text>
<line x1="86.0" y1="740" x2="86.0" y2="1052" stroke="#8a8d93" stroke-width="0.5" opacity="0.3" />
<text x="86.0" y="1066" font-size="7.5" fill="#8a8d93" text-anchor="middle" font-weight="600" font-family="'Courier New', 'DejaVu Sans Mono', monospace" >0</text>
<line x1="159.48888888888888" y1="740" x2="159.48888888888888" y2="1052" stroke="#8a8d93" stroke-width="0.5" opacity="0.3" />
<text x="159.48888888888888" y="1066" font-size="7.5" fill="#8a8d93" text-anchor="middle" font-weight="600" font-family="'Courier New', 'DejaVu Sans Mono', monospace" >1</text>
<line x1="232.97777777777776" y1="740" x2="232.97777777777776" y2="1052" stroke="#8a8d93" stroke-width="0.5" opacity="0.3" />
<text x="232.97777777777776" y="1066" font-size="7.5" fill="#8a8d93" text-anchor="middle" font-weight="600" font-family="'Courier New', 'DejaVu Sans Mono', monospace" >2</text>
<line x1="306.46666666666664" y1="740" x2="306.46666666666664" y2="1052" stroke="#8a8d93" stroke-width="0.5" opacity="0.3" />
<text x="306.46666666666664" y="1066" font-size="7.5" fill="#8a8d93" text-anchor="middle" font-weight="600" font-family="'Courier New', 'DejaVu Sans Mono', monospace" >3</text>
<line x1="379.9555555555555" y1="740" x2="379.9555555555555" y2="1052" stroke="#8a8d93" stroke-width="0.5" opacity="0.3" />
<text x="379.9555555555555" y="1066" font-size="7.5" fill="#8a8d93" text-anchor="middle" font-weight="600" font-family="'Courier New', 'DejaVu Sans Mono', monospace" >4</text>
<line x1="453.44444444444446" y1="740" x2="453.44444444444446" y2="1052" stroke="#8a8d93" stroke-width="0.5" opacity="0.3" />
<text x="453.44444444444446" y="1066" font-size="7.5" fill="#8a8d93" text-anchor="middle" font-weight="600" font-family="'Courier New', 'DejaVu Sans Mono', monospace" >5</text>
<line x1="526.9333333333333" y1="740" x2="526.9333333333333" y2="1052" stroke="#8a8d93" stroke-width="0.5" opacity="0.3" />
<text x="526.9333333333333" y="1066" font-size="7.5" fill="#8a8d93" text-anchor="middle" font-weight="600" font-family="'Courier New', 'DejaVu Sans Mono', monospace" >6</text>
<line x1="600.4222222222222" y1="740" x2="600.4222222222222" y2="1052" stroke="#8a8d93" stroke-width="0.5" opacity="0.3" />
<text x="600.4222222222222" y="1066" font-size="7.5" fill="#8a8d93" text-anchor="middle" font-weight="600" font-family="'Courier New', 'DejaVu Sans Mono', monospace" >7</text>
<line x1="673.911111111111" y1="740" x2="673.911111111111" y2="1052" stroke="#8a8d93" stroke-width="0.5" opacity="0.3" />
<text x="673.911111111111" y="1066" font-size="7.5" fill="#8a8d93" text-anchor="middle" font-weight="600" font-family="'Courier New', 'DejaVu Sans Mono', monospace" >8</text>
<line x1="747.4" y1="740" x2="747.4" y2="1052" stroke="#8a8d93" stroke-width="0.5" opacity="0.3" />
<text x="747.4" y="1066" font-size="7.5" fill="#8a8d93" text-anchor="middle" font-weight="600" font-family="'Courier New', 'DejaVu Sans Mono', monospace" >9</text>
<text x="416.7" y="1080" font-size="7.5" fill="#52565f" text-anchor="middle" font-weight="700" font-family="'Courier New', 'DejaVu Sans Mono', monospace" >DOWNRANGE (KM)</text>
<text x="54" y="896.0" font-size="7.5" fill="#52565f" text-anchor="middle" font-weight="700" font-family="'Courier New', 'DejaVu Sans Mono', monospace" transform="rotate(-90 54 896.0)">ALTITUDE (KM)</text>
<path d="M 86.0 1052.0 L 86.0 1051.6 L 86.0 1051.0 L 86.0 1050.0 L 86.0 1048.7 L 86.0 1046.9 L 86.0 1045.0 L 86.0 1042.4 L 86.0 1039.5 L 86.7 1036.0 L 87.5 1032.3 L 88.2 1028.0 L 89.7 1023.3 L 91.1 1018.1 L 93.3 1012.4 L 96.3 1006.2 L 100.0 999.4 L 105.1 992.1 L 111.0 984.5 L 117.6 976.7 L 124.9 968.7 L 134.5 960.5 L 144.8 952.0 L 156.5 943.2 L 169.0 934.2 L 184.5 924.9 L 200.6 915.3 L 219.0 905.6 L 239.6 895.6 L 262.4 885.5 L 288.1 875.1 L 315.3 864.6 L 345.4 853.9 L 378.5 843.2 L 414.5 832.2 L 453.4 821.3 L 495.3 810.2 L 539.4 798.9 L 586.5 787.4 L 636.4 775.7 L 688.6 763.6" fill="none" stroke="#0b3d91" stroke-width="2.4" />
<line x1="86.0" y1="1051.025" x2="86.0" y2="1038.025" stroke="#52565f" stroke-width="1.4" />
<line x1="86.0" y1="1044.98" x2="86.0" y2="1031.98" stroke="#52565f" stroke-width="1.4" />
<line x1="87.46977777777778" y1="1032.305" x2="88.15014520893605" y2="1019.3228160481906" stroke="#52565f" stroke-width="1.4" />
<line x1="93.3488888888889" y1="1012.415" x2="94.93319035315581" y2="999.5119000286628" stroke="#52565f" stroke-width="1.4" />
<line x1="110.98622222222222" y1="984.53" x2="113.68907420285309" y2="971.8140811904605" stroke="#52565f" stroke-width="1.4" />
<line x1="144.79111111111112" y1="951.965" x2="149.02349711905416" y2="939.6732585172089" stroke="#52565f" stroke-width="1.4" />
<line x1="200.64266666666668" y1="915.3050000000001" x2="206.3414915749247" y2="903.6206773981108" stroke="#52565f" stroke-width="1.4" />
<line x1="288.09444444444443" y1="875.135" x2="295.36395218956415" y2="864.3575115567844" stroke="#52565f" stroke-width="1.4" />
<line x1="414.4953333333333" y1="832.235" x2="423.19403121599845" y2="822.5741172687939" stroke="#52565f" stroke-width="1.4" />
<line x1="586.4593333333332" y1="787.385" x2="596.1202160645394" y2="778.6863021173349" stroke="#52565f" stroke-width="1.4" />
<circle cx="99.228" cy="1000.52" r="4" fill="#fcfbf6" stroke="#5c3d8c" stroke-width="1.8" />
<text x="106.228" y="1002.52" font-size="7" fill="#5c3d8c" text-anchor="start" font-weight="800" font-family="'Courier New', 'DejaVu Sans Mono', monospace" >BOOSTER SEP</text>
<circle cx="111.72111111111111" cy="983.75" r="4" fill="#fcfbf6" stroke="#c81d25" stroke-width="1.8" />
<text x="118.72111111111111" y="985.75" font-size="7" fill="#c81d25" text-anchor="start" font-weight="800" font-family="'Courier New', 'DejaVu Sans Mono', monospace" >MAX Q</text>
<circle cx="690.8135555555556" cy="763.2049999999999" r="4" fill="#fcfbf6" stroke="#c81d25" stroke-width="1.8" />
<text x="684.8135555555556" y="755.2049999999999" font-size="7" fill="#c81d25" text-anchor="end" font-weight="800" font-family="'Courier New', 'DejaVu Sans Mono', monospace" >CORE BURNOUT</text>
<path d="M 690.8135555555556 763.2049999999999 Q 747.4 749.75 747.4 755.6" fill="none" stroke="#0e6e5c" stroke-width="1.8" stroke-dasharray="5 4"/>
<text x="696.8135555555556" y="775.2049999999999" font-size="7" fill="#0e6e5c" text-anchor="start" font-weight="800" font-family="'Courier New', 'DejaVu Sans Mono', monospace" >→ TERRIER TO ORBIT</text>
<text x="743.4" y="1044" font-size="6.8" fill="#8a8d93" text-anchor="end" font-weight="700" font-family="'Courier New', 'DejaVu Sans Mono', monospace" >TICKS = VEHICLE PITCH</text>
<rect x="795.4" y="706" width="444.6" height="380" fill="#fcfbf6" stroke="#16181d" stroke-width="1.4" rx="0" />
<text x="805.4" y="724" font-size="8.5" fill="#8a8d93" text-anchor="start" font-weight="800" font-family="'Courier New', 'DejaVu Sans Mono', monospace" letter-spacing="0.3" >ROLL / HEADING REFERENCE</text>
<circle cx="1017.7" cy="904.0" r="160.0" fill="none" stroke="#8a8d93" stroke-width="1" />
<line x1="1017.7" y1="750.0" x2="1017.7" y2="744.0" stroke="#52565f" stroke-width="1" />
<text x="1017.7" y="737.0" font-size="8" fill="#52565f" text-anchor="middle" font-weight="800" font-family="'Courier New', 'DejaVu Sans Mono', monospace" >N</text>
<line x1="1171.7" y1="904.0" x2="1177.7" y2="904.0" stroke="#52565f" stroke-width="1" />
<text x="1187.7" y="907.0" font-size="8" fill="#52565f" text-anchor="middle" font-weight="800" font-family="'Courier New', 'DejaVu Sans Mono', monospace" >E</text>
<line x1="1017.7" y1="1058.0" x2="1017.7" y2="1064.0" stroke="#52565f" stroke-width="1" />
<text x="1017.7" y="1077.0" font-size="8" fill="#52565f" text-anchor="middle" font-weight="800" font-family="'Courier New', 'DejaVu Sans Mono', monospace" >S</text>
<line x1="863.7" y1="904.0" x2="857.7" y2="904.0" stroke="#52565f" stroke-width="1" />
<text x="847.7" y="907.0" font-size="8" fill="#52565f" text-anchor="middle" font-weight="800" font-family="'Courier New', 'DejaVu Sans Mono', monospace" >W</text>
<path d="M 1017.7 904.0 L 1177.7 904.0" fill="none" stroke="#0b3d91" stroke-width="2.4" />
<polygon points="1177.7,904.0 1167.7,899.0 1167.7,909.0" fill="#0b3d91" stroke="#16181d" stroke-width="1.6" />
<text x="1017.7" y="1072" font-size="7.5" fill="#0b3d91" text-anchor="middle" font-weight="800" font-family="'Courier New', 'DejaVu Sans Mono', monospace" >LAUNCH AZIMUTH 090° (DUE EAST)</text>
<text x="40" y="1118" font-size="8.5" fill="#8a8d93" text-anchor="start" font-weight="800" font-family="'Courier New', 'DejaVu Sans Mono', monospace" letter-spacing="0.3" >POWERED FLIGHT TIMELINE — MET</text>
<rect x="40.0" y="1132" width="468.0" height="26" fill="#c4cee2" stroke="#16181d" stroke-width="1.3" rx="0" />
<text x="274.0" y="1149" font-size="8" fill="#16181d" text-anchor="middle" font-weight="800" font-family="'Courier New', 'DejaVu Sans Mono', monospace" >BOOST  (2X HAMMER + SWIVEL)</text>
<rect x="508.0" y="1132" width="696.0" height="26" fill="#dde3ee" stroke="#16181d" stroke-width="1.3" rx="0" />
<text x="856.0" y="1149" font-size="8" fill="#16181d" text-anchor="middle" font-weight="800" font-family="'Courier New', 'DejaVu Sans Mono', monospace" >CORE  (SWIVEL)</text>
<rect x="1204.0" y="1132" width="36.00000000000003" height="26" fill="#eae7dd" stroke="#16181d" stroke-width="1.3" rx="0" />
<line x1="40.0" y1="1126" x2="40.0" y2="1164" stroke="#0b3d91" stroke-width="1.4" />
<text x="40.0" y="1176" font-size="7.5" fill="#0b3d91" text-anchor="start" font-weight="800" font-family="'Courier New', 'DejaVu Sans Mono', monospace" >LIFTOFF</text>
<line x1="508.0" y1="1126" x2="508.0" y2="1164" stroke="#5c3d8c" stroke-width="1.4" />
<text x="508.0" y="1176" font-size="7.5" fill="#5c3d8c" text-anchor="middle" font-weight="800" font-family="'Courier New', 'DejaVu Sans Mono', monospace" >SEP T+25s</text>
<line x1="592.0" y1="1126" x2="592.0" y2="1164" stroke="#c81d25" stroke-width="1.4" />
<text x="592.0" y="1187" font-size="7.5" fill="#c81d25" text-anchor="middle" font-weight="800" font-family="'Courier New', 'DejaVu Sans Mono', monospace" >MAXQ</text>
<line x1="1204.0" y1="1126" x2="1204.0" y2="1164" stroke="#c81d25" stroke-width="1.4" />
<text x="1204.0" y="1176" font-size="7.5" fill="#c81d25" text-anchor="middle" font-weight="800" font-family="'Courier New', 'DejaVu Sans Mono', monospace" >B/O T+63s</text>
<line x1="1240.0" y1="1126" x2="1240.0" y2="1164" stroke="#0e6e5c" stroke-width="1.4" />
<text x="1240.0" y="1187" font-size="7.5" fill="#0e6e5c" text-anchor="end" font-weight="800" font-family="'Courier New', 'DejaVu Sans Mono', monospace" >STAGE</text>
<text x="40" y="1218" font-size="12" fill="#0b3d91" text-anchor="start" font-weight="800" font-family="'Arial Narrow', Arial, 'Helvetica Neue', sans-serif" letter-spacing="1" >PROGRAM NOTES</text>
<text x="40" y="1242" font-size="11" fill="#52565f" text-anchor="start" font-weight="500" font-family="Arial, 'Helvetica Neue', sans-serif" >• Pitch is given as degrees from vertical (0° = straight up). Values are nominal for a smooth, hand-flown gravity turn.</text>
<text x="40" y="1261" font-size="11" fill="#52565f" text-anchor="start" font-weight="500" font-family="Arial, 'Helvetica Neue', sans-serif" >• Below ~15 km keep the nose near the velocity vector; over-steering in thick air is the leading cause of departures.</text>
<text x="40" y="1280" font-size="11" fill="#52565f" text-anchor="start" font-weight="500" font-family="Arial, 'Helvetica Neue', sans-serif" >• After booster separation the gravity turn is largely self-shaping — follow prograde rather than forcing pitch.</text>
<text x="40" y="1299" font-size="11" fill="#52565f" text-anchor="start" font-weight="500" font-family="Arial, 'Helvetica Neue', sans-serif" >• Core stage nominally reaches ~15 km / ~25-30 km apoapsis; the Terrier completes the climb to the 70-85 km target.</text>
<text x="40" y="1318" font-size="11" fill="#52565f" text-anchor="start" font-weight="500" font-family="Arial, 'Helvetica Neue', sans-serif" >• CIRCULARIZE: aim ~80 km apoapsis and LEAD it — start the burn a few seconds before apoapsis, not at it.</text>
<text x="40" y="1337" font-size="11" fill="#52565f" text-anchor="start" font-weight="500" font-family="Arial, 'Helvetica Neue', sans-serif" >• The Terrier’s low thrust makes the burn long; starting at apoapsis lets you fall back into atmosphere. Burn until periapsis meets apoapsis.</text>
<rect x="16" y="1414" width="1248" height="70" fill="#fcfbf6" stroke="#16181d" stroke-width="1.6" rx="0" />
<text x="29" y="1432" font-size="9" fill="#52565f" text-anchor="start" font-weight="800" font-family="'Arial Narrow', Arial, 'Helvetica Neue', sans-serif" >PERSEUS 1</text>
<text x="29" y="1448" font-size="9" fill="#52565f" text-anchor="start" font-weight="800" font-family="'Arial Narrow', Arial, 'Helvetica Neue', sans-serif" >MISSION PACK</text>
<line x1="166" y1="1414" x2="166" y2="1484" stroke="#16181d" stroke-width="1.1" />
<text x="179" y="1432" font-size="13" fill="#16181d" text-anchor="start" font-weight="800" font-family="Arial, 'Helvetica Neue', sans-serif" >ASCENT GUIDANCE PROGRAM</text>
<text x="179" y="1452" font-size="9.5" fill="#52565f" text-anchor="start" font-weight="500" font-family="Arial, 'Helvetica Neue', sans-serif" >Kerbal Space Program — mission documentation appendix</text>
<line x1="774" y1="1414" x2="774" y2="1484" stroke="#16181d" stroke-width="1.1" />
<text x="787" y="1432" font-size="8" fill="#8a8d93" text-anchor="start" font-weight="700" font-family="'Courier New', 'DejaVu Sans Mono', monospace" >DWG NO</text>
<text x="787" y="1447" font-size="12" fill="#16181d" text-anchor="start" font-weight="700" font-family="'Courier New', 'DejaVu Sans Mono', monospace" >KSP-PRS1-AG-03</text>
<line x1="964" y1="1414" x2="964" y2="1484" stroke="#16181d" stroke-width="1.1" />
<text x="977" y="1432" font-size="8" fill="#8a8d93" text-anchor="start" font-weight="700" font-family="'Courier New', 'DejaVu Sans Mono', monospace" >SCALE</text>
<text x="977" y="1447" font-size="12" fill="#16181d" text-anchor="start" font-weight="700" font-family="'Courier New', 'DejaVu Sans Mono', monospace" >NTS</text>
<line x1="1114" y1="1414" x2="1114" y2="1484" stroke="#16181d" stroke-width="1.1" />
<text x="1127" y="1432" font-size="8" fill="#8a8d93" text-anchor="start" font-weight="700" font-family="'Courier New', 'DejaVu Sans Mono', monospace" >SHEET</text>
<text x="1127" y="1447" font-size="12" fill="#16181d" text-anchor="start" font-weight="700" font-family="'Courier New', 'DejaVu Sans Mono', monospace" >3 OF 4  REV A</text>
</svg>