<svg xmlns="http://www.w3.org/2000/svg" width="1280" height="1500" viewBox="0 0 1280 1500">
<defs><pattern id="hatch" width="6" height="6" patternTransform="rotate(45)" patternUnits="userSpaceOnUse"><line x1="0" y1="0" x2="0" y2="6" stroke="#9aa0aa" stroke-width="1"/></pattern><pattern id="hatchBlue" width="7" height="7" patternTransform="rotate(45)" patternUnits="userSpaceOnUse"><line x1="0" y1="0" x2="0" y2="7" stroke="#0b3d91" stroke-width="1" opacity="0.30"/></pattern></defs>
<rect x="0" y="0" width="1280" height="1500" fill="#f6f4ec" stroke="none" stroke-width="1.6" rx="0" />
<line x1="16" y1="16" x2="16" y2="1484" stroke="#16181d" stroke-width="0.5" opacity="0.05" />
<line x1="40" y1="16" x2="40" y2="1484" stroke="#16181d" stroke-width="0.5" opacity="0.05" />
<line x1="64" y1="16" x2="64" y2="1484" stroke="#16181d" stroke-width="0.5" opacity="0.05" />
<line x1="88" y1="16" x2="88" y2="1484" stroke="#16181d" stroke-width="0.5" opacity="0.05" />
<line x1="112" y1="16" x2="112" y2="1484" stroke="#16181d" stroke-width="0.5" opacity="0.05" />
<line x1="136" y1="16" x2="136" y2="1484" stroke="#16181d" stroke-width="0.5" opacity="0.05" />
<line x1="160" y1="16" x2="160" y2="1484" stroke="#16181d" stroke-width="0.5" opacity="0.05" />
<line x1="184" y1="16" x2="184" y2="1484" stroke="#16181d" stroke-width="0.5" opacity="0.05" />
<line x1="208" y1="16" x2="208" y2="1484" stroke="#16181d" stroke-width="0.5" opacity="0.05" />
<line x1="232" y1="16" x2="232" y2="1484" stroke="#16181d" stroke-width="0.5" opacity="0.05" />
<line x1="256" y1="16" x2="256" y2="1484" stroke="#16181d" stroke-width="0.5" opacity="0.05" />
<line x1="280" y1="16" x2="280" y2="1484" stroke="#16181d" stroke-width="0.5" opacity="0.05" />
<line x1="304" y1="16" x2="304" y2="1484" stroke="#16181d" stroke-width="0.5" opacity="0.05" />
<line x1="328" y1="16" x2="328" y2="1484" stroke="#16181d" stroke-width="0.5" opacity="0.05" />
<line x1="352" y1="16" x2="352" y2="1484" stroke="#16181d" stroke-width="0.5" opacity="0.05" />
<line x1="376" y1="16" x2="376" y2="1484" stroke="#16181d" stroke-width="0.5" opacity="0.05" />
<line x1="400" y1="16" x2="400" y2="1484" stroke="#16181d" stroke-width="0.5" opacity="0.05" />
<line x1="424" y1="16" x2="424" y2="1484" stroke="#16181d" stroke-width="0.5" opacity="0.05" />
<line x1="448" y1="16" x2="448" y2="1484" stroke="#16181d" stroke-width="0.5" opacity="0.05" />
<line x1="472" y1="16" x2="472" y2="1484" stroke="#16181d" stroke-width="0.5" opacity="0.05" />
<line x1="496" y1="16" x2="496" y2="1484" stroke="#16181d" stroke-width="0.5" opacity="0.05" />
<line x1="520" y1="16" x2="520" y2="1484" stroke="#16181d" stroke-width="0.5" opacity="0.05" />
<line x1="544" y1="16" x2="544" y2="1484" stroke="#16181d" stroke-width="0.5" opacity="0.05" />
<line x1="568" y1="16" x2="568" y2="1484" stroke="#16181d" stroke-width="0.5" opacity="0.05" />
<line x1="592" y1="16" x2="592" y2="1484" stroke="#16181d" stroke-width="0.5" opacity="0.05" />
<line x1="616" y1="16" x2="616" y2="1484" stroke="#16181d" stroke-width="0.5" opacity="0.05" />
<line x1="640" y1="16" x2="640" y2="1484" stroke="#16181d" stroke-width="0.5" opacity="0.05" />
<line x1="664" y1="16" x2="664" y2="1484" stroke="#16181d" stroke-width="0.5" opacity="0.05" />
<line x1="688" y1="16" x2="688" y2="1484" stroke="#16181d" stroke-width="0.5" opacity="0.05" />
<line x1="712" y1="16" x2="712" y2="1484" stroke="#16181d" stroke-width="0.5" opacity="0.05" />
<line x1="736" y1="16" x2="736" y2="1484" stroke="#16181d" stroke-width="0.5" opacity="0.05" />
<line x1="760" y1="16" x2="760" y2="1484" stroke="#16181d" stroke-width="0.5" opacity="0.05" />
<line x1="784" y1="16" x2="784" y2="1484" stroke="#16181d" stroke-width="0.5" opacity="0.05" />
<line x1="808" y1="16" x2="808" y2="1484" stroke="#16181d" stroke-width="0.5" opacity="0.05" />
<line x1="832" y1="16" x2="832" y2="1484" stroke="#16181d" stroke-width="0.5" opacity="0.05" />
<line x1="856" y1="16" x2="856" y2="1484" stroke="#16181d" stroke-width="0.5" opacity="0.05" />
<line x1="880" y1="16" x2="880" y2="1484" stroke="#16181d" stroke-width="0.5" opacity="0.05" />
<line x1="904" y1="16" x2="904" y2="1484" stroke="#16181d" stroke-width="0.5" opacity="0.05" />
<line x1="928" y1="16" x2="928" y2="1484" stroke="#16181d" stroke-width="0.5" opacity="0.05" />
<line x1="952" y1="16" x2="952" y2="1484" stroke="#16181d" stroke-width="0.5" opacity="0.05" />
<line x1="976" y1="16" x2="976" y2="1484" stroke="#16181d" stroke-width="0.5" opacity="0.05" />
<line x1="1000" y1="16" x2="1000" y2="1484" stroke="#16181d" stroke-width="0.5" opacity="0.05" />
<line x1="1024" y1="16" x2="1024" y2="1484" stroke="#16181d" stroke-width="0.5" opacity="0.05" />
<line x1="1048" y1="16" x2="1048" y2="1484" stroke="#16181d" stroke-width="0.5" opacity="0.05" />
<line x1="1072" y1="16" x2="1072" y2="1484" stroke="#16181d" stroke-width="0.5" opacity="0.05" />
<line x1="1096" y1="16" x2="1096" y2="1484" stroke="#16181d" stroke-width="0.5" opacity="0.05" />
<line x1="1120" y1="16" x2="1120" y2="1484" stroke="#16181d" stroke-width="0.5" opacity="0.05" />
<line x1="1144" y1="16" x2="1144" y2="1484" stroke="#16181d" stroke-width="0.5" opacity="0.05" />
<line x1="1168" y1="16" x2="1168" y2="1484" stroke="#16181d" stroke-width="0.5" opacity="0.05" />
<line x1="1192" y1="16" x2="1192" y2="1484" stroke="#16181d" stroke-width="0.5" opacity="0.05" />
<line x1="1216" y1="16" x2="1216" y2="1484" stroke="#16181d" stroke-width="0.5" opacity="0.05" />
<line x1="1240" y1="16" x2="1240" y2="1484" stroke="#16181d" stroke-width="0.5" opacity="0.05" />
<line x1="1264" y1="16" x2="1264" y2="1484" stroke="#16181d" stroke-width="0.5" opacity="0.05" />
<line x1="16" y1="16" x2="1264" y2="16" stroke="#16181d" stroke-width="0.5" opacity="0.05" />
<line x1="16" y1="40" x2="1264" y2="40" stroke="#16181d" stroke-width="0.5" opacity="0.05" />
<line x1="16" y1="64" x2="1264" y2="64" stroke="#16181d" stroke-width="0.5" opacity="0.05" />
<line x1="16" y1="88" x2="1264" y2="88" stroke="#16181d" stroke-width="0.5" opacity="0.05" />
<line x1="16" y1="112" x2="1264" y2="112" stroke="#16181d" stroke-width="0.5" opacity="0.05" />
<line x1="16" y1="136" x2="1264" y2="136" stroke="#16181d" stroke-width="0.5" opacity="0.05" />
<line x1="16" y1="160" x2="1264" y2="160" stroke="#16181d" stroke-width="0.5" opacity="0.05" />
<line x1="16" y1="184" x2="1264" y2="184" stroke="#16181d" stroke-width="0.5" opacity="0.05" />
<line x1="16" y1="208" x2="1264" y2="208" stroke="#16181d" stroke-width="0.5" opacity="0.05" />
<line x1="16" y1="232" x2="1264" y2="232" stroke="#16181d" stroke-width="0.5" opacity="0.05" />
<line x1="16" y1="256" x2="1264" y2="256" stroke="#16181d" stroke-width="0.5" opacity="0.05" />
<line x1="16" y1="280" x2="1264" y2="280" stroke="#16181d" stroke-width="0.5" opacity="0.05" />
<line x1="16" y1="304" x2="1264" y2="304" stroke="#16181d" stroke-width="0.5" opacity="0.05" />
<line x1="16" y1="328" x2="1264" y2="328" stroke="#16181d" stroke-width="0.5" opacity="0.05" />
<line x1="16" y1="352" x2="1264" y2="352" stroke="#16181d" stroke-width="0.5" opacity="0.05" />
<line x1="16" y1="376" x2="1264" y2="376" stroke="#16181d" stroke-width="0.5" opacity="0.05" />
<line x1="16" y1="400" x2="1264" y2="400" stroke="#16181d" stroke-width="0.5" opacity="0.05" />
<line x1="16" y1="424" x2="1264" y2="424" stroke="#16181d" stroke-width="0.5" opacity="0.05" />
<line x1="16" y1="448" x2="1264" y2="448" stroke="#16181d" stroke-width="0.5" opacity="0.05" />
<line x1="16" y1="472" x2="1264" y2="472" stroke="#16181d" stroke-width="0.5" opacity="0.05" />
<line x1="16" y1="496" x2="1264" y2="496" stroke="#16181d" stroke-width="0.5" opacity="0.05" />
<line x1="16" y1="520" x2="1264" y2="520" stroke="#16181d" stroke-width="0.5" opacity="0.05" />
<line x1="16" y1="544" x2="1264" y2="544" stroke="#16181d" stroke-width="0.5" opacity="0.05" />
<line x1="16" y1="568" x2="1264" y2="568" stroke="#16181d" stroke-width="0.5" opacity="0.05" />
<line x1="16" y1="592" x2="1264" y2="592" stroke="#16181d" stroke-width="0.5" opacity="0.05" />
<line x1="16" y1="616" x2="1264" y2="616" stroke="#16181d" stroke-width="0.5" opacity="0.05" />
<line x1="16" y1="640" x2="1264" y2="640" stroke="#16181d" stroke-width="0.5" opacity="0.05" />
<line x1="16" y1="664" x2="1264" y2="664" stroke="#16181d" stroke-width="0.5" opacity="0.05" />
<line x1="16" y1="688" x2="1264" y2="688" stroke="#16181d" stroke-width="0.5" opacity="0.05" />
<line x1="16" y1="712" x2="1264" y2="712" stroke="#16181d" stroke-width="0.5" opacity="0.05" />
<line x1="16" y1="736" x2="1264" y2="736" stroke="#16181d" stroke-width="0.5" opacity="0.05" />
<line x1="16" y1="760" x2="1264" y2="760" stroke="#16181d" stroke-width="0.5" opacity="0.05" />
<line x1="16" y1="784" x2="1264" y2="784" stroke="#16181d" stroke-width="0.5" opacity="0.05" />
<line x1="16" y1="808" x2="1264" y2="808" stroke="#16181d" stroke-width="0.5" opacity="0.05" />
<line x1="16" y1="832" x2="1264" y2="832" stroke="#16181d" stroke-width="0.5" opacity="0.05" />
<line x1="16" y1="856" x2="1264" y2="856" stroke="#16181d" stroke-width="0.5" opacity="0.05" />
<line x1="16" y1="880" x2="1264" y2="880" stroke="#16181d" stroke-width="0.5" opacity="0.05" />
<line x1="16" y1="904" x2="1264" y2="904" stroke="#16181d" stroke-width="0.5" opacity="0.05" />
<line x1="16" y1="928" x2="1264" y2="928" stroke="#16181d" stroke-width="0.5" opacity="0.05" />
<line x1="16" y1="952" x2="1264" y2="952" stroke="#16181d" stroke-width="0.5" opacity="0.05" />
<line x1="16" y1="976" x2="1264" y2="976" stroke="#16181d" stroke-width="0.5" opacity="0.05" />
<line x1="16" y1="1000" x2="1264" y2="1000" stroke="#16181d" stroke-width="0.5" opacity="0.05" />
<line x1="16" y1="1024" x2="1264" y2="1024" stroke="#16181d" stroke-width="0.5" opacity="0.05" />
<line x1="16" y1="1048" x2="1264" y2="1048" stroke="#16181d" stroke-width="0.5" opacity="0.05" />
<line x1="16" y1="1072" x2="1264" y2="1072" stroke="#16181d" stroke-width="0.5" opacity="0.05" />
<line x1="16" y1="1096" x2="1264" y2="1096" stroke="#16181d" stroke-width="0.5" opacity="0.05" />
<line x1="16" y1="1120" x2="1264" y2="1120" stroke="#16181d" stroke-width="0.5" opacity="0.05" />
<line x1="16" y1="1144" x2="1264" y2="1144" stroke="#16181d" stroke-width="0.5" opacity="0.05" />
<line x1="16" y1="1168" x2="1264" y2="1168" stroke="#16181d" stroke-width="0.5" opacity="0.05" />
<line x1="16" y1="1192" x2="1264" y2="1192" stroke="#16181d" stroke-width="0.5" opacity="0.05" />
<line x1="16" y1="1216" x2="1264" y2="1216" stroke="#16181d" stroke-width="0.5" opacity="0.05" />
<line x1="16" y1="1240" x2="1264" y2="1240" stroke="#16181d" stroke-width="0.5" opacity="0.05" />
<line x1="16" y1="1264" x2="1264" y2="1264" stroke="#16181d" stroke-width="0.5" opacity="0.05" />
<line x1="16" y1="1288" x2="1264" y2="1288" stroke="#16181d" stroke-width="0.5" opacity="0.05" />
<line x1="16" y1="1312" x2="1264" y2="1312" stroke="#16181d" stroke-width="0.5" opacity="0.05" />
<line x1="16" y1="1336" x2="1264" y2="1336" stroke="#16181d" stroke-width="0.5" opacity="0.05" />
<line x1="16" y1="1360" x2="1264" y2="1360" stroke="#16181d" stroke-width="0.5" opacity="0.05" />
<line x1="16" y1="1384" x2="1264" y2="1384" stroke="#16181d" stroke-width="0.5" opacity="0.05" />
<line x1="16" y1="1408" x2="1264" y2="1408" stroke="#16181d" stroke-width="0.5" opacity="0.05" />
<line x1="16" y1="1432" x2="1264" y2="1432" stroke="#16181d" stroke-width="0.5" opacity="0.05" />
<line x1="16" y1="1456" x2="1264" y2="1456" stroke="#16181d" stroke-width="0.5" opacity="0.05" />
<line x1="16" y1="1480" x2="1264" y2="1480" stroke="#16181d" stroke-width="0.5" opacity="0.05" />
<rect x="16" y="16" width="1248" height="1468" fill="none" stroke="#16181d" stroke-width="2.4" rx="0" />
<rect x="23" y="23" width="1234" height="1454" fill="none" stroke="#16181d" stroke-width="0.8" rx="0" />
<line x1="10" y1="16" x2="34" y2="16" stroke="#16181d" stroke-width="1.6" />
<line x1="16" y1="10" x2="16" y2="34" stroke="#16181d" stroke-width="1.6" />
<line x1="1270" y1="16" x2="1246" y2="16" stroke="#16181d" stroke-width="1.6" />
<line x1="1264" y1="10" x2="1264" y2="34" stroke="#16181d" stroke-width="1.6" />
<line x1="10" y1="1484" x2="34" y2="1484" stroke="#16181d" stroke-width="1.6" />
<line x1="16" y1="1490" x2="16" y2="1466" stroke="#16181d" stroke-width="1.6" />
<line x1="1270" y1="1484" x2="1246" y2="1484" stroke="#16181d" stroke-width="1.6" />
<line x1="1264" y1="1490" x2="1264" y2="1466" stroke="#16181d" stroke-width="1.6" />
<circle cx="66" cy="76" r="29" fill="#fcfbf6" stroke="#16181d" stroke-width="1.8" />
<circle cx="66" cy="76" r="23" fill="none" stroke="#0b3d91" stroke-width="1.1" />
<polygon points="64.5,60 67.5,60 71,84 61,84" fill="#16181d" stroke="#16181d" stroke-width="1.6" />
<polygon points="61,84 57,91 62,87" fill="#c81d25" stroke="#16181d" stroke-width="1.6" />
<polygon points="71,84 75,91 70,87" fill="#c81d25" stroke="#16181d" stroke-width="1.6" />
<ellipse cx="66" cy="77" rx="18" ry="6.5" fill="none" stroke="#16181d" stroke-width="1" transform="rotate(-20 66 77)"/>
<text x="66" y="117" font-size="8.5" fill="#16181d" text-anchor="middle" font-weight="800" font-family="'Arial Narrow', Arial, 'Helvetica Neue', sans-serif" letter-spacing="1.5" >PERSEUS · I</text>
<text x="150" y="56" font-size="10.5" fill="#0b3d91" text-anchor="start" font-weight="800" font-family="'Arial Narrow', Arial, 'Helvetica Neue', sans-serif" letter-spacing="1.2" >PERSEUS 1 · MISSION PACK · APPENDIX D</text>
<text x="150" y="96" font-size="27" fill="#16181d" text-anchor="start" font-weight="800" font-family="'Arial Narrow', Arial, 'Helvetica Neue', sans-serif" >ASCENT CONTINGENCY &amp; ABORT CRITERIA</text>
<text x="150" y="122" font-size="12.5" fill="#52565f" text-anchor="start" font-weight="500" font-family="Arial, 'Helvetica Neue', sans-serif" >Go / No-Go gates · corrections · hard abort window</text>
<line x1="40" y1="140" x2="1240" y2="140" stroke="#16181d" stroke-width="1.3" />
<rect x="40" y="168" width="1200" height="70" fill="#fcfbf6" stroke="#16181d" stroke-width="1.3" rx="0" />
<text x="54" y="190" font-size="10" fill="#0b3d91" text-anchor="start" font-weight="800" font-family="'Arial Narrow', Arial, 'Helvetica Neue', sans-serif" letter-spacing="0.5" >READING THE CLIMB — WATCH APOAPSIS, NOT PERIAPSIS</text>
<text x="54" y="210" font-size="9" fill="#52565f" text-anchor="start" font-weight="500" font-family="Arial, 'Helvetica Neue', sans-serif" >• A deeply negative periapsis (even -400 km) is NORMAL for most of the ascent: at core burnout you have ~485 m/s horizontal vs ~2279 m/s needed for orbit.</text>
<text x="54" y="225" font-size="9" fill="#52565f" text-anchor="start" font-weight="500" font-family="Arial, 'Helvetica Neue', sans-serif" >• Periapsis only climbs from far-negative, through the surface, up past 70 km in the FINAL portion of the Terrier burn. Judge ascent health by apoapsis trend.</text>
<text x="40" y="250" font-size="11" fill="#0b3d91" text-anchor="start" font-weight="800" font-family="'Arial Narrow', Arial, 'Helvetica Neue', sans-serif" letter-spacing="0.6" >GO / NO-GO GATES</text>
<rect x="40" y="258" width="1200" height="280" fill="#fcfbf6" stroke="#16181d" stroke-width="1.6" rx="0" />
<rect x="40" y="258" width="1200" height="56" fill="#dde3ee" stroke="#16181d" stroke-width="1.6" rx="0" />
<rect x="190" y="258" width="250" height="5" fill="#0e6e5c" stroke="#16181d" stroke-width="0" rx="0" />
<rect x="440" y="258" width="250" height="5" fill="#5c3d8c" stroke="#16181d" stroke-width="0" rx="0" />
<rect x="690" y="258" width="550" height="5" fill="#c81d25" stroke="#16181d" stroke-width="0" rx="0" />
<text x="48" y="292" font-size="9.5" fill="#16181d" text-anchor="start" font-weight="800" font-family="'Courier New', 'DejaVu Sans Mono', monospace" letter-spacing="0.3" >FLIGHT PHASE</text>
<text x="198" y="292" font-size="9.5" fill="#16181d" text-anchor="start" font-weight="800" font-family="'Courier New', 'DejaVu Sans Mono', monospace" letter-spacing="0.3" >NOMINAL  (GO)</text>
<text x="448" y="292" font-size="9.5" fill="#16181d" text-anchor="start" font-weight="800" font-family="'Courier New', 'DejaVu Sans Mono', monospace" letter-spacing="0.3" >MARGINAL  (CORRECT)</text>
<text x="698" y="292" font-size="9.5" fill="#16181d" text-anchor="start" font-weight="800" font-family="'Courier New', 'DejaVu Sans Mono', monospace" letter-spacing="0.3" >ABORT / NO-GO</text>
<line x1="190" y1="258" x2="190" y2="538" stroke="#16181d" stroke-width="0.7" opacity="0.3" />
<line x1="440" y1="258" x2="440" y2="538" stroke="#16181d" stroke-width="0.7" opacity="0.3" />
<line x1="690" y1="258" x2="690" y2="538" stroke="#16181d" stroke-width="0.7" opacity="0.3" />
<text x="48" y="338" font-size="9" fill="#16181d" text-anchor="start" font-weight="800" font-family="'Courier New', 'DejaVu Sans Mono', monospace" >CORE BURNOUT</text>
<text x="198" y="332" font-size="8.3" fill="#52565f" text-anchor="start" font-weight="600" font-family="Arial, 'Helvetica Neue', sans-serif" >Apoapsis 20-30 km, rising</text>
<text x="448" y="332" font-size="8.3" fill="#52565f" text-anchor="start" font-weight="600" font-family="Arial, 'Helvetica Neue', sans-serif" >Apoapsis 15-20 km</text>
<text x="698" y="332" font-size="8.3" fill="#c81d25" text-anchor="start" font-weight="600" font-family="Arial, 'Helvetica Neue', sans-serif" >Apoapsis &lt; 12 km, or already falling</text>
<rect x="40" y="370" width="1200" height="56" fill="#16181d" stroke="#16181d" stroke-width="0" rx="0" opacity="0.025" />
<text x="48" y="394" font-size="9" fill="#16181d" text-anchor="start" font-weight="800" font-family="'Courier New', 'DejaVu Sans Mono', monospace" >MID TERRIER BURN</text>
<text x="198" y="388" font-size="8.3" fill="#52565f" text-anchor="start" font-weight="600" font-family="Arial, 'Helvetica Neue', sans-serif" >Apoapsis climbing toward 70-80 km</text>
<text x="448" y="388" font-size="8.3" fill="#52565f" text-anchor="start" font-weight="600" font-family="Arial, 'Helvetica Neue', sans-serif" >Apoapsis rising slowly — pitch flatter</text>
<text x="698" y="388" font-size="8.3" fill="#c81d25" text-anchor="start" font-weight="600" font-family="Arial, 'Helvetica Neue', sans-serif" >Apoapsis stalled &lt; 40 km, &gt; ½ Terrier fuel spent</text>
<line x1="40" y1="370" x2="1240" y2="370" stroke="#16181d" stroke-width="0.6" opacity="0.25" />
<text x="48" y="450" font-size="9" fill="#16181d" text-anchor="start" font-weight="800" font-family="'Courier New', 'DejaVu Sans Mono', monospace" >LATE TERRIER BURN</text>
<text x="198" y="444" font-size="8.3" fill="#52565f" text-anchor="start" font-weight="600" font-family="Arial, 'Helvetica Neue', sans-serif" >Apoapsis ~80 km, periapsis rising thru 0</text>
<text x="448" y="444" font-size="8.3" fill="#52565f" text-anchor="start" font-weight="600" font-family="Arial, 'Helvetica Neue', sans-serif" >Periapsis lagging — keep burning prograde</text>
<text x="698" y="444" font-size="8.3" fill="#c81d25" text-anchor="start" font-weight="600" font-family="Arial, 'Helvetica Neue', sans-serif" >Terrier &lt; 25% fuel, periapsis still &lt; -100 km</text>
<line x1="40" y1="426" x2="1240" y2="426" stroke="#16181d" stroke-width="0.6" opacity="0.25" />
<rect x="40" y="482" width="1200" height="56" fill="#16181d" stroke="#16181d" stroke-width="0" rx="0" opacity="0.025" />
<text x="48" y="506" font-size="9" fill="#16181d" text-anchor="start" font-weight="800" font-family="'Courier New', 'DejaVu Sans Mono', monospace" >ORBIT INSERTION</text>
<text x="198" y="500" font-size="8.3" fill="#52565f" text-anchor="start" font-weight="600" font-family="Arial, 'Helvetica Neue', sans-serif" >Periapsis clears 70 km, ~80 km circular</text>
<text x="448" y="500" font-size="8.3" fill="#52565f" text-anchor="start" font-weight="600" font-family="Arial, 'Helvetica Neue', sans-serif" >Periapsis 40-70 km — trim w/ remaining fuel</text>
<text x="698" y="500" font-size="8.3" fill="#c81d25" text-anchor="start" font-weight="600" font-family="Arial, 'Helvetica Neue', sans-serif" >Cannot raise periapsis &gt; 70 km w/ fuel left</text>
<line x1="40" y1="482" x2="1240" y2="482" stroke="#16181d" stroke-width="0.6" opacity="0.25" />
<text x="40" y="582" font-size="11" fill="#0b3d91" text-anchor="start" font-weight="800" font-family="'Arial Narrow', Arial, 'Helvetica Neue', sans-serif" letter-spacing="0.6" >CORRECTIONS — IN PRIORITY ORDER</text>
<circle cx="49" cy="604" r="10" fill="#fcfbf6" stroke="#0b3d91" stroke-width="1.6" />
<text x="49" y="608" font-size="10" fill="#0b3d91" text-anchor="middle" font-weight="800" font-family="'Courier New', 'DejaVu Sans Mono', monospace" >1</text>
<text x="68" y="606" font-size="9.5" fill="#16181d" text-anchor="start" font-weight="800" font-family="Arial, 'Helvetica Neue', sans-serif" >Apoapsis rising slowly / periapsis not climbing</text>
<text x="68" y="621" font-size="8.6" fill="#52565f" text-anchor="start" font-weight="500" font-family="Arial, 'Helvetica Neue', sans-serif" >Pitch TOWARD THE HORIZON now. Most common cause is too steep a climb; flatter flight converts thrust into the horizontal</text>
<text x="68" y="633" font-size="8.6" fill="#52565f" text-anchor="start" font-weight="500" font-family="Arial, 'Helvetica Neue', sans-serif" >speed that raises periapsis. Single most effective fix.</text>
<circle cx="49" cy="652" r="10" fill="#fcfbf6" stroke="#0b3d91" stroke-width="1.6" />
<text x="49" y="656" font-size="10" fill="#0b3d91" text-anchor="middle" font-weight="800" font-family="'Courier New', 'DejaVu Sans Mono', monospace" >2</text>
<text x="68" y="654" font-size="9.5" fill="#16181d" text-anchor="start" font-weight="800" font-family="Arial, 'Helvetica Neue', sans-serif" >Apoapsis overshooting 85 km, periapsis still low</text>
<text x="68" y="669" font-size="8.6" fill="#52565f" text-anchor="start" font-weight="500" font-family="Arial, 'Helvetica Neue', sans-serif" >Climbing too much. Pitch further toward horizon; let apoapsis settle while horizontal speed catches up.</text>
<circle cx="49" cy="688" r="10" fill="#fcfbf6" stroke="#0b3d91" stroke-width="1.6" />
<text x="49" y="692" font-size="10" fill="#0b3d91" text-anchor="middle" font-weight="800" font-family="'Courier New', 'DejaVu Sans Mono', monospace" >3</text>
<text x="68" y="690" font-size="9.5" fill="#16181d" text-anchor="start" font-weight="800" font-family="Arial, 'Helvetica Neue', sans-serif" >Apoapsis stalled but fuel remains</text>
<text x="68" y="705" font-size="8.6" fill="#52565f" text-anchor="start" font-weight="500" font-family="Arial, 'Helvetica Neue', sans-serif" >Likely fighting gravity near-vertical. Lower the nose hard toward prograde/horizon and keep burning.</text>
<circle cx="49" cy="724" r="10" fill="#fcfbf6" stroke="#0b3d91" stroke-width="1.6" />
<text x="49" y="728" font-size="10" fill="#0b3d91" text-anchor="middle" font-weight="800" font-family="'Courier New', 'DejaVu Sans Mono', monospace" >4</text>
<text x="68" y="726" font-size="9.5" fill="#16181d" text-anchor="start" font-weight="800" font-family="Arial, 'Helvetica Neue', sans-serif" >Off-nominal but fuel-positive</text>
<text x="68" y="741" font-size="8.6" fill="#52565f" text-anchor="start" font-weight="500" font-family="Arial, 'Helvetica Neue', sans-serif" >Terrier carries ~3.4 km/s; ascent needs ~1.8 km/s horizontal make-up plus losses. Real margin to recover a sloppy climb IF</text>
<text x="68" y="753" font-size="8.6" fill="#52565f" text-anchor="start" font-weight="500" font-family="Arial, 'Helvetica Neue', sans-serif" >caught early.</text>
<rect x="681.28" y="568" width="558.72" height="210" fill="#fcfbf6" stroke="#c81d25" stroke-width="2.2" rx="6" />
<rect x="681.28" y="568" width="558.72" height="26" fill="#c81d25" stroke="#16181d" stroke-width="0" rx="0" />
<text x="693.28" y="586" font-size="11" fill="#ffffff" text-anchor="start" font-weight="800" font-family="'Arial Narrow', Arial, 'Helvetica Neue', sans-serif" letter-spacing="0.6" >HARD ABORT WINDOW</text>
<text x="693.28" y="614" font-size="8.8" fill="#16181d" text-anchor="start" font-weight="800" font-family="Arial, 'Helvetica Neue', sans-serif" >Abort orbital insertion if, with ≤ 25% Terrier fuel remaining, periapsis is still</text>
<text x="693.28" y="629" font-size="8.8" fill="#52565f" text-anchor="start" font-weight="500" font-family="Arial, 'Helvetica Neue', sans-serif" >below -100 km (apoapsis stalled under ~40 km). Beyond this point there is not</text>
<text x="693.28" y="644" font-size="8.8" fill="#52565f" text-anchor="start" font-weight="500" font-family="Arial, 'Helvetica Neue', sans-serif" >enough propellant to both raise apoapsis and build orbital horizontal speed;</text>
<text x="693.28" y="659" font-size="8.8" fill="#52565f" text-anchor="start" font-weight="500" font-family="Arial, 'Helvetica Neue', sans-serif" >continuing only deepens an unrecoverable suborbital arc.</text>
<text x="693.28" y="674" font-size="8.8" fill="#52565f" text-anchor="start" font-weight="500" font-family="Arial, 'Helvetica Neue', sans-serif" ></text>
<text x="693.28" y="689" font-size="8.8" fill="#16181d" text-anchor="start" font-weight="800" font-family="Arial, 'Helvetica Neue', sans-serif" >ON ABORT:  stop climbing — hold capsule prograde and shallow for survivable</text>
<text x="693.28" y="704" font-size="8.8" fill="#52565f" text-anchor="start" font-weight="500" font-family="Arial, 'Helvetica Neue', sans-serif" >re-entry · close service bay · heat shield forward · retain fuel for retrograde</text>
<text x="693.28" y="719" font-size="8.8" fill="#52565f" text-anchor="start" font-weight="500" font-family="Arial, 'Helvetica Neue', sans-serif" >slow-down if available · ride down as suborbital crew recovery.</text>
<text x="693.28" y="734" font-size="8.8" fill="#52565f" text-anchor="start" font-weight="500" font-family="Arial, 'Helvetica Neue', sans-serif" >A clean suborbital abort that recovers the crew beats burning the last fuel</text>
<text x="693.28" y="749" font-size="8.8" fill="#52565f" text-anchor="start" font-weight="500" font-family="Arial, 'Helvetica Neue', sans-serif" >into a steeper crash.</text>
<text x="40" y="792" font-size="11" fill="#c81d25" text-anchor="start" font-weight="800" font-family="'Arial Narrow', Arial, 'Helvetica Neue', sans-serif" letter-spacing="0.6" >PRIMARY FAILURE MODE</text>
<text x="40" y="814" font-size="9" fill="#52565f" text-anchor="start" font-weight="500" font-family="Arial, 'Helvetica Neue', sans-serif" >• Flying too steep — putting Terrier thrust into climbing instead of building horizontal speed. The nose held toward vertical gains altitude</text>
<text x="40" y="829" font-size="9" fill="#52565f" text-anchor="start" font-weight="500" font-family="Arial, 'Helvetica Neue', sans-serif" >• but stalls horizontal velocity; apoapsis stops rising, the vehicle arcs over, and it falls back before periapsis clears the atmosphere.</text>
<text x="40" y="844" font-size="9" fill="#52565f" text-anchor="start" font-weight="500" font-family="Arial, 'Helvetica Neue', sans-serif" >• Signature: -400 km periapsis at END of burn with apoapsis stuck ~30 km. Correction: pitch toward the horizon, keep the prograde marker low.</text>
<rect x="16" y="1414" width="1248" height="70" fill="#fcfbf6" stroke="#16181d" stroke-width="1.6" rx="0" />
<text x="29" y="1432" font-size="9" fill="#52565f" text-anchor="start" font-weight="800" font-family="'Arial Narrow', Arial, 'Helvetica Neue', sans-serif" >PERSEUS 1</text>
<text x="29" y="1448" font-size="9" fill="#52565f" text-anchor="start" font-weight="800" font-family="'Arial Narrow', Arial, 'Helvetica Neue', sans-serif" >MISSION PACK</text>
<line x1="166" y1="1414" x2="166" y2="1484" stroke="#16181d" stroke-width="1.1" />
<text x="179" y="1432" font-size="13" fill="#16181d" text-anchor="start" font-weight="800" font-family="Arial, 'Helvetica Neue', sans-serif" >ASCENT CONTINGENCY &amp; ABORT CRITERIA</text>
<text x="179" y="1452" font-size="9.5" fill="#52565f" text-anchor="start" font-weight="500" font-family="Arial, 'Helvetica Neue', sans-serif" >Kerbal Space Program — mission documentation appendix</text>
<line x1="774" y1="1414" x2="774" y2="1484" stroke="#16181d" stroke-width="1.1" />
<text x="787" y="1432" font-size="8" fill="#8a8d93" text-anchor="start" font-weight="700" font-family="'Courier New', 'DejaVu Sans Mono', monospace" >DWG NO</text>
<text x="787" y="1447" font-size="12" fill="#16181d" text-anchor="start" font-weight="700" font-family="'Courier New', 'DejaVu Sans Mono', monospace" >KSP-PRS1-AB-04</text>
<line x1="964" y1="1414" x2="964" y2="1484" stroke="#16181d" stroke-width="1.1" />
<text x="977" y="1432" font-size="8" fill="#8a8d93" text-anchor="start" font-weight="700" font-family="'Courier New', 'DejaVu Sans Mono', monospace" >SCALE</text>
<text x="977" y="1447" font-size="12" fill="#16181d" text-anchor="start" font-weight="700" font-family="'Courier New', 'DejaVu Sans Mono', monospace" >NTS</text>
<line x1="1114" y1="1414" x2="1114" y2="1484" stroke="#16181d" stroke-width="1.1" />
<text x="1127" y="1432" font-size="8" fill="#8a8d93" text-anchor="start" font-weight="700" font-family="'Courier New', 'DejaVu Sans Mono', monospace" >SHEET</text>
<text x="1127" y="1447" font-size="12" fill="#16181d" text-anchor="start" font-weight="700" font-family="'Courier New', 'DejaVu Sans Mono', monospace" >4 OF 4  REV A</text>
</svg>